<svg width="93" height="56" viewBox="0 0 93 56" fill="none" xmlns="http://www.w3.org/2000/svg">
<rect x="0.736938" width="91.5789" height="55.2631" rx="8" fill="white"/>
<g clip-path="url(#clip0_508_38)">
<path d="M71.7439 39.5215H53.2719L52.2523 38.197V39.5215H48.0145V37.0181C47.4277 37.2529 46.7477 37.3836 46.0044 37.3836H45.7777V39.5215H39.7652L38.8214 38.1875L37.8961 39.5215H28.2022V29.9468H37.934L38.8684 31.2526L39.8027 29.9468H73.8719V0H19V21.5324L20.8801 17.1365H24.7881L25.6561 19.1472V17.1365H30.4887L31.102 18.877L31.7062 17.1365H52.4721V17.9067C53.2522 17.377 54.2253 17.1365 55.2567 17.1365H61.6842L62.5526 19.1472V17.1365H66.4978L67.4132 18.6316V17.1365H71.6988V26.7105H67.6494L66.7904 25.3009V26.7105H60.8723L60.3246 25.3009H59.173L58.6351 26.7105H55.1517C54.2927 26.7105 53.3004 26.5464 52.4714 26.0038V26.7105H46.5252L45.5052 25.3864V26.7105H23.9762L23.4285 25.3009H22.2769L21.739 26.7105H19V55H73.8719V38.9504C73.2881 39.3125 72.5554 39.5215 71.7439 39.5215" fill="#0071CE"/>
<path d="M34.9983 32.7853V31.4229H29.7408V38.0455H34.9983V36.7024H31.298V35.3867H34.913V34.0528H31.298V32.7853H34.9983V32.7853ZM40.4726 38.0455H42.4171L39.7558 34.7059L42.3985 31.4229H40.5105L38.8684 33.5703L37.2355 31.4229H35.2909L37.9435 34.734L35.3004 38.0451H37.1884L38.8305 35.8787L40.4729 38.0451L40.4726 38.0455ZM42.7283 31.4229V38.0455H44.2862V35.851H46.2872C47.7314 35.851 48.6187 34.9046 48.6187 33.6371C48.6187 32.3697 47.7503 31.4233 46.3441 31.4233H42.7287L42.7283 31.4229ZM47.0517 33.6459C47.0517 34.1003 46.7682 34.4692 46.2019 34.4692H44.2858V32.8039H46.2019C46.7678 32.8039 47.0517 33.1732 47.0517 33.6455M51.0435 35.6139H51.7804L53.7905 38.0451H55.7351L53.5544 35.5566C54.6684 35.3487 55.3291 34.5539 55.3291 33.5038C55.3291 32.2831 54.4607 31.4221 53.0544 31.4221H49.4868V38.0447H51.0435V35.6136V35.6139ZM52.9126 32.8039C53.4789 32.8039 53.7617 33.1444 53.7617 33.5608C53.7617 33.9772 53.4789 34.318 52.9126 34.318H51.0435V32.8039H52.9126V32.8039ZM61.455 32.7849V31.4225H56.1975V38.0451H61.455V36.7021H57.7546V35.3864H61.3697V34.0524H57.7546V32.7849H61.455ZM65.7022 36.6641H62.3328V38.0451H65.6457C67.0706 38.0451 67.9204 37.1751 67.9204 35.9452C67.9204 34.7154 67.1464 34.0524 65.8626 34.0524H64.3619C63.9749 34.0524 63.7012 33.7975 63.7012 33.4191C63.7012 33.0406 63.9745 32.8036 64.3619 32.8036H67.1938L67.8071 31.4225H64.4188C63.0026 31.4225 62.1441 32.2929 62.1441 33.4852C62.1441 34.6774 62.9556 35.4057 64.2016 35.4057H65.7022C66.0892 35.4057 66.3629 35.6515 66.3629 36.049C66.3629 36.4183 66.0896 36.6637 65.7022 36.6637M71.7811 36.6637H68.4109V38.0447H71.7238C73.1494 38.0447 73.9989 37.1747 73.9989 35.9449C73.9989 34.715 73.2245 34.052 71.941 34.052H70.4404C70.0537 34.052 69.7793 33.7971 69.7793 33.4187C69.7793 33.0403 70.0537 32.8032 70.4404 32.8032H73.2723L73.8859 31.4221H70.4972C69.0815 31.4221 68.2225 32.2925 68.2225 33.4848C68.2225 34.677 69.0345 35.4053 70.2804 35.4053H71.7811C72.1677 35.4053 72.4418 35.6512 72.4418 36.0486C72.4418 36.4179 72.1681 36.6633 71.7811 36.6633" fill="#0071CE"/>
<path d="M24.9955 25.2348H26.7323L23.9099 18.6125H21.852L19.0209 25.2348H20.6353L21.1917 23.8347H24.4296L24.9955 25.2348V25.2348ZM22.3247 21.0156L22.8061 19.7193L23.297 21.0156L23.9485 22.6235H21.683L22.3251 21.0156H22.3247ZM28.5165 20.8925L28.46 19.3694L28.9414 20.8925L30.3287 25.2348H31.7729L33.1697 20.8925L33.6511 19.3595L33.5946 20.8925L33.5757 25.2348H35.0385V18.6125H32.5845L31.4613 22.0848L31.0554 23.5703L30.6494 22.0848L29.5263 18.6125H27.0625V25.2348H28.5351L28.5161 20.8925H28.5165ZM41.5612 19.975V18.6125H36.3037V25.2348H41.5612V23.8917H37.8609V22.576H41.4759V21.2425H37.8609V19.975H41.5612V19.975ZM44.2138 22.8032H44.9495L46.9604 25.2344H48.9049L46.7246 22.7466C47.8383 22.5388 48.4986 21.7436 48.4986 20.6934C48.4986 19.4731 47.6302 18.6125 46.2239 18.6125H42.6559V25.2348H44.2138V22.8036V22.8032ZM46.0825 19.9932C46.6488 19.9932 46.9323 20.334 46.9323 20.7504C46.9323 21.1668 46.6492 21.5073 46.0825 21.5073H44.2138V19.9932H46.0825V19.9932ZM49.3674 25.2348H50.9245V18.6125H49.3674V25.2348ZM54.9364 25.2348H55.0118L55.6536 23.8442H55.182C54.0869 23.8442 53.4452 23.1634 53.4452 21.9712V21.8766C53.4452 20.8074 54.0305 20.013 55.1627 20.013H56.862V18.6129H55.0399C53.0108 18.6129 51.8877 19.9841 51.8877 21.8576V21.9902C51.8877 23.9392 53.0294 25.2166 54.9364 25.2348M61.8075 25.2348H63.5443L60.7218 18.6125H58.664L55.8328 25.2348H57.4465L58.0037 23.8347H61.2415L61.8075 25.2348ZM59.1367 21.0156L59.6181 19.7193L60.1089 21.0156L60.7601 22.6235H58.4949L59.137 21.0156H59.1367ZM65.366 21.5548L65.319 20.448L65.9512 21.5266L68.2733 25.2352H70.0761V18.6129H68.6035V22.1323L68.6505 23.2489L68.0087 22.1513L65.7716 18.6133H63.874V25.2356H65.3656V21.5555L65.366 21.5548Z" fill="#0071CE"/>
</g>
<defs>
<clipPath id="clip0_508_38">
<rect width="55" height="55" fill="white" transform="translate(19)"/>
</clipPath>
</defs>
</svg>
