<svg width="92" height="56" viewBox="0 0 92 56" fill="none" xmlns="http://www.w3.org/2000/svg">
<rect x="0.157959" width="91.5789" height="55.2631" rx="8" fill="#ED1C24"/>
<path d="M45.7872 22.0168C55.8446 22.0168 64.2191 25.877 65.8619 30.9435C66.0622 30.3404 66.1825 29.7372 66.1825 29.0938C66.1825 23.1427 57.0467 18.2772 45.7471 18.2772C34.4876 18.2772 25.3118 23.1025 25.3118 29.0938C25.3118 29.7372 25.432 30.3404 25.6323 30.9435C27.3553 25.877 35.7298 22.0168 45.7872 22.0168ZM45.7872 15.6234C55.8446 15.6234 64.2191 19.4836 65.8619 24.5501C66.0622 23.9469 66.1825 23.3438 66.1825 22.7004C66.2225 16.709 57.0867 11.8838 45.7872 11.8838C34.5277 11.8838 25.3518 16.709 25.3518 22.7004C25.3518 23.3438 25.472 23.9469 25.6724 24.5501C27.3553 19.4836 35.7298 15.6234 45.7872 15.6234ZM54.1617 41.4787L49.9945 36.0905H47.991V44.0923H49.9143V38.865L54.0415 44.0923H56.085V36.0905H54.1617V41.4787ZM22.7874 42.4437C22.3867 42.7252 21.9059 42.8458 21.385 42.8458C20.6637 42.8458 20.0226 42.6448 19.5819 42.2024C19.101 41.7601 18.9007 41.0363 18.9007 40.0311C18.9007 39.066 19.1411 38.3825 19.6219 37.9804C20.1028 37.538 20.7038 37.337 21.4651 37.337C22.0261 37.337 22.4668 37.4576 22.8675 37.6989C23.2282 37.9401 23.5087 38.2618 23.6289 38.6639L25.6724 38.302C25.432 37.6587 25.1114 37.1761 24.6306 36.8142C23.8693 36.2513 22.8275 35.9698 21.5853 35.9698C20.1428 35.9698 19.0209 36.3317 18.1394 37.0555C17.1777 37.8195 16.7369 38.8248 16.7369 40.1919C16.7369 41.4384 17.1777 42.4437 18.0592 43.1675C18.9408 43.8913 20.0226 44.2532 21.385 44.2532C22.4668 44.2532 23.3884 44.0521 24.1097 43.6098C24.8309 43.1675 25.3118 42.5241 25.6323 41.6395L23.6289 41.157C23.4285 41.7601 23.148 42.1622 22.7874 42.4437ZM67.064 36.0905V37.4576H70.1092V44.0923H72.1528V37.4576H75.158V36.0905H67.064ZM60.3323 40.594H65.4612V39.2269H60.3323V37.4576H65.8218V36.0905H58.2888V44.0923H66.0222V42.7252H60.3323V40.594ZM44.4248 41.2374C44.1443 40.9961 43.7837 40.7549 43.343 40.5538C44.2245 40.4332 44.9057 40.1919 45.3464 39.83C45.7872 39.4279 46.0276 38.9454 46.0276 38.3422C46.0276 37.8597 45.8673 37.4576 45.5868 37.0957C45.3064 36.7338 44.9057 36.4524 44.3848 36.3317C43.9039 36.1709 43.1025 36.1307 42.0207 36.1307H37.6932V44.1325H39.7367V40.7951H40.1374C40.6182 40.7951 40.9388 40.8353 41.1792 40.8755C41.3796 40.9157 41.62 41.0363 41.7803 41.1972C41.9806 41.358 42.3412 41.7601 42.8621 42.3633L44.3447 44.0923H46.7889L45.5468 42.5241C45.106 41.921 44.7454 41.4787 44.4248 41.2374ZM41.2594 39.5083H39.7367V37.4576H41.3395C42.1809 37.4576 42.6618 37.4576 42.8221 37.4978C43.1426 37.538 43.4231 37.6587 43.5834 37.8195C43.7837 37.9804 43.8639 38.2216 43.8639 38.4629C43.8639 38.7041 43.7837 38.9052 43.6635 39.066C43.5433 39.2269 43.343 39.3475 43.1025 39.3877C42.8621 39.4681 42.2611 39.5083 41.2594 39.5083ZM30.3204 36.0905L26.3536 44.0923H28.5574L29.3988 42.2829H33.4859L34.3674 44.0923H36.6113L32.5242 36.0905H30.3204ZM29.9999 40.9157L31.3622 37.9401L32.7647 40.9157H29.9999Z" fill="white"/>
</svg>
