<svg width="92" height="56" viewBox="0 0 92 56" fill="none" xmlns="http://www.w3.org/2000/svg">
<rect width="91.5789" height="55.2631" rx="8" fill="#D92F27"/>
<path d="M53.0806 42.4384H43.5802C42.6462 42.4384 42.0187 41.4598 42.3981 40.6126L44.3536 36.3185C44.5579 35.8511 45.0249 35.559 45.5357 35.559H53.5768C53.8541 35.559 54.1168 35.3983 54.2335 35.1354L54.394 34.7849C54.5254 34.5074 54.3211 34.2006 54.0146 34.2006H45.9735C45.6671 34.2006 45.4627 33.8793 45.5941 33.6164L46.2362 32.2142C46.4405 31.7614 46.9075 31.4547 47.4037 31.4547H58.2614C58.5678 31.4547 58.7721 31.776 58.6408 32.0389L54.2335 41.6643C54.0438 42.1317 53.5914 42.4384 53.0806 42.4384V42.4384ZM46.4843 39.6925H51.6942C51.9715 39.6925 52.2342 39.5318 52.3509 39.2689L52.5261 38.8891C52.6574 38.6116 52.4531 38.3049 52.1466 38.3049H46.747C46.5865 38.3049 46.4405 38.4071 46.3676 38.5532L46.1049 39.1082C45.9881 39.3711 46.1778 39.6925 46.4843 39.6925V39.6925Z" fill="white"/>
<path d="M42.7483 31.4547C43.3466 31.4547 43.7406 32.0828 43.4925 32.6232L41.931 35.9826C41.0116 37.9982 38.9977 39.2981 36.7795 39.2981H31.3214C31.1901 39.2981 31.0588 39.3711 31.0004 39.5026L29.9934 41.6935C29.7891 42.1609 29.3221 42.453 28.8113 42.453H26.7974C26.739 42.453 26.6953 42.38 26.7099 42.3215L31.2923 32.258C31.5112 31.776 32.0073 31.4547 32.5327 31.4547H42.7483V31.4547ZM32.4889 36.5522H37.2027C38.0783 36.5522 38.8809 36.041 39.2458 35.2377L39.4501 34.7995C39.5814 34.522 39.3771 34.2152 39.0707 34.2152H33.6856C33.5251 34.2152 33.3792 34.3175 33.3062 34.4635L32.4014 36.4499C32.3868 36.4792 32.4306 36.5522 32.4889 36.5522Z" fill="white"/>
<path d="M72.5777 31.4547H69.4984C69.2357 31.4547 68.9876 31.5277 68.7687 31.6884L64.8722 34.3613L63.3253 32.0389C63.0918 31.6738 62.6832 31.4693 62.26 31.4693L60.4358 31.4547C60.1001 31.4547 59.8958 31.8199 60.0855 32.0974L63.194 36.7567L60.6547 42.3215C60.6255 42.38 60.6693 42.453 60.7422 42.453H62.7853C63.2961 42.453 63.7485 42.1609 63.9674 41.6935L66.2148 36.8151L72.8404 32.2288C73.1468 31.9805 72.9863 31.4547 72.5777 31.4547V31.4547Z" fill="white"/>
<path d="M69.8986 9.9165L63.3678 16.45L65.0857 18.1652L71.6165 11.6317L69.8986 9.9165Z" fill="white"/>
<path d="M61.0766 9H58.327V15.4157H61.0766V9Z" fill="white"/>
<path d="M59.4593 18.1653C57.9007 18.1653 56.5552 18.6741 55.4362 19.7039C54.3039 20.7337 53.7444 21.9936 53.7444 23.4353C53.7444 24.877 54.3039 26.1369 55.4362 27.1425C56.5419 28.1844 57.9007 28.7053 59.4593 28.7053C61.018 28.7053 62.3901 28.1722 63.5357 27.1425C64.6414 26.1248 65.2009 24.877 65.2009 23.4353C65.2009 21.9936 64.6414 20.7337 63.5357 19.7039C62.3901 18.662 61.018 18.1653 59.4593 18.1653ZM61.6041 25.3858C61.018 25.9431 60.3119 26.1975 59.4593 26.1975C58.6334 26.1975 57.9274 25.931 57.3412 25.3858C56.7551 24.8285 56.4353 24.1864 56.4353 23.4353C56.4353 22.6478 56.7551 21.9936 57.3412 21.4606C57.9274 20.9033 58.6334 20.6367 59.4593 20.661C60.2986 20.6367 61.018 20.9033 61.6308 21.4606C62.1903 21.9936 62.4833 22.6478 62.51 23.4353C62.47 24.1864 62.1903 24.8285 61.6041 25.3858Z" fill="white"/>
<path d="M24.7913 17.5696C25.6068 17.5696 26.3331 17.8 27.0466 18.2608C27.6837 18.696 28.1806 19.2976 28.5374 20.0144H31.2896C30.8819 18.5424 30.1046 17.3136 28.9069 16.3793C27.6964 15.4065 26.3076 14.9329 24.7786 14.9585C22.8801 14.9329 21.3128 15.5985 20.0004 16.9681C18.6626 18.312 18 19.9248 18 21.8319C18 23.7135 18.6498 25.3647 20.0004 26.7214C21.3128 28.0398 22.8801 28.7054 24.7786 28.7054C26.2948 28.7054 27.6837 28.2446 28.9069 27.2974C30.0919 26.3246 30.8819 25.1343 31.2896 23.6623H28.5374C28.1806 24.3791 27.6709 24.9551 27.0466 25.4158C26.3331 25.851 25.6068 26.0814 24.7913 26.0814C23.6318 26.0814 22.638 25.6462 21.8353 24.8399C21.007 23.9951 20.5993 23.0095 20.6248 21.8319C20.5993 20.6672 21.007 19.6688 21.8353 18.8368C22.6507 18.0048 23.6318 17.5696 24.7913 17.5696V17.5696Z" fill="white"/>
<path d="M44.6391 18.8227C43.724 18.3614 42.693 18.1428 41.5459 18.1671C39.7545 18.1428 38.5043 18.6042 37.7826 19.4904C37.3186 20.0489 37.0866 20.7652 37.0093 21.6879H39.6642C39.7158 21.2509 39.8705 20.9595 40.0509 20.7652C40.3344 20.4253 40.7855 20.2553 41.4557 20.2796C42.0228 20.2553 42.4481 20.3524 42.7574 20.5224C43.0667 20.6681 43.1956 20.9595 43.2214 21.3723C43.2214 21.7122 43.0152 21.9793 42.6027 22.1493L40.5535 22.4649C39.6127 22.5863 38.8394 22.8049 38.2465 23.1205C37.2542 23.679 36.7644 24.5653 36.7902 25.8522C36.7644 26.7385 37.0737 27.4669 37.6795 28.0011C38.2208 28.4382 38.9554 28.681 39.8576 28.7053C41.3139 28.681 42.461 28.3411 43.2858 27.6612V28.7053H45.9537V21.3237C45.9666 20.1096 45.5026 19.2598 44.6391 18.8227V18.8227ZM43.1827 24.5896C43.1827 25.4516 42.925 26.0586 42.4481 26.3986C41.9326 26.7385 41.4041 26.9085 40.7855 26.9085C40.3989 26.9085 40.0896 26.8113 39.8447 26.6171C39.5869 26.3986 39.458 26.0829 39.458 25.6337C39.458 25.1238 39.6642 24.7595 40.1024 24.4925C40.3602 24.3468 40.7984 24.2254 41.3526 24.1525L42.6801 23.8368L43.1956 23.5698V24.5896H43.1827V24.5896Z" fill="white"/>
<path d="M35.414 14.9575H32.6644V28.7054H35.414V14.9575Z" fill="white"/>
<path d="M52.6242 18.2141L51.6251 18.4828C50.9381 18.7515 50.3137 19.2156 49.7891 19.9118V18.6294L47.3287 18.605V28.7053H49.8766V23.8689C49.8766 23.0384 49.9765 22.4643 50.2013 22.0979C50.3761 21.7071 50.7008 21.4018 51.088 21.1331C51.5376 20.84 51.9997 20.6934 52.4993 20.6934L53.2861 20.7423L53.2612 18.1653L52.6242 18.2141V18.2141Z" fill="white"/>
<path d="M72.9915 21.274V20.4565H66.5758V23.2061H72.9915V21.274Z" fill="white"/>
</svg>
