<svg width="93" height="56" viewBox="0 0 93 56" fill="none" xmlns="http://www.w3.org/2000/svg">
<rect x="0.473877" width="91.5789" height="55.2631" rx="8" fill="#F3F3F3"/>
<path fill-rule="evenodd" clip-rule="evenodd" d="M52.9718 26.5933C53.2398 24.4092 54.8799 23.568 56.9861 23.568C57.3919 23.568 57.8873 23.6487 58.2329 23.705L58.2329 23.705L58.2331 23.7051C58.3575 23.7253 58.4625 23.7425 58.5369 23.7515L58.0529 25.9892C57.8857 25.9064 57.4196 25.7895 57.0348 25.7895C55.8169 25.7895 55.4823 26.5917 55.4823 27.8437V32.4847H52.9134C50.8527 40.747 43.3325 46.8707 34.4304 46.8707C25.728 46.8707 18.3978 41.0166 16.1471 33.0336C16.1292 32.9865 15.936 32.3158 15.7833 31.5234C15.7557 31.3837 15.6956 31.0037 15.6599 30.7212C15.6708 30.7662 15.6769 30.7899 15.684 30.8174L15.684 30.8174C15.6908 30.8434 15.6985 30.873 15.7119 30.9274C15.8158 31.3415 16.025 31.5983 16.0495 31.6284L16.0513 31.6306C16.5888 32.3288 17.4559 32.423 17.4559 32.423V32.4214C17.6768 32.4604 17.909 32.4831 18.1526 32.4831H23.1622L23.5292 30.2129H19.0051C18.3036 30.2129 17.9366 29.8118 17.9366 28.9609V27.5579H22.3617L22.7287 25.3705H17.9366V22.9655H23.2288L23.5796 20.6953H16.8356C19.6677 13.7597 26.4766 8.87024 34.4304 8.87024C44.4952 8.87024 52.3028 16.6957 52.9653 26.5933L52.9708 26.5934L52.9718 26.5933ZM50.359 32.4847H52.9117L52.9134 27.2087C52.9134 24.6885 51.0768 23.5696 48.6393 23.5696C46.2019 23.5696 44.3653 24.6868 44.3653 27.2087V32.4847H46.9196V27.8437C46.9196 26.5917 47.4035 25.7895 48.6393 25.7895C49.8751 25.7895 50.359 26.5917 50.359 27.8437V32.4847ZM28.5535 32.6504C31.6762 32.6504 33.5632 30.7813 33.5632 27.592H33.5616V20.6953H31.0072V24.5683C30.5395 24.0665 29.6042 23.5664 28.3359 23.5664C25.564 23.5664 23.7111 25.3867 23.7111 28.1084C23.7111 30.7131 25.6646 32.6504 28.5535 32.6504ZM42.1081 30.2129C41.4553 30.5133 40.7602 30.7309 40.0084 30.7309C38.823 30.7309 37.454 30.1804 37.2039 28.7433H43.8148C43.8813 25.6043 42.2786 23.568 39.073 23.568C36.2345 23.568 34.3816 25.4712 34.3816 28.0093C34.3816 30.9307 36.4521 32.6504 39.3913 32.6504C40.2763 32.6504 41.1613 32.5334 41.8953 32.233L42.1081 30.2129ZM39.1574 25.3705C38.0548 25.3705 37.3549 26.0882 37.1373 27.0398H41.0606C40.9275 25.9892 40.1918 25.3705 39.1574 25.3705ZM28.672 25.7877C27.2689 25.7877 26.3839 26.7556 26.3839 28.1083C26.3839 29.4447 27.2852 30.445 28.672 30.445C30.0588 30.445 30.9925 29.4934 30.9925 28.1083C30.9925 26.7231 30.0571 25.7877 28.672 25.7877ZM62.78 23.5679C59.9415 23.5679 58.0886 25.4711 58.0886 28.0092C58.0886 30.9306 60.1591 32.6503 63.0983 32.6503C63.9833 32.6503 64.8683 32.5334 65.6023 32.233L65.815 30.2129C65.1639 30.5133 64.4672 30.7309 63.717 30.7309C62.5316 30.7309 61.1626 30.1804 60.9125 28.7432H67.525C67.5883 25.6043 65.9855 23.5679 62.78 23.5679ZM60.8427 27.0414C61.0603 26.0898 61.7618 25.3721 62.8628 25.3721C63.8989 25.3721 64.6329 25.9891 64.766 27.0414H60.8427ZM75.1019 24.5682V20.6953H77.6579V27.5919C77.6579 30.7796 75.771 32.6503 72.6483 32.6503C69.7594 32.6503 67.8058 30.713 67.8058 28.1083C67.8058 25.3867 69.6587 23.5663 72.4306 23.5663C73.6989 23.5663 74.6343 24.0681 75.1019 24.5682ZM70.4755 28.1099C70.4755 29.4448 71.3784 30.4467 72.7635 30.4467C74.1503 30.4467 75.0857 29.4951 75.0841 28.1099C75.0841 26.7248 74.1487 25.7894 72.7635 25.7894C71.3605 25.7894 70.4755 26.7572 70.4755 28.1099Z" fill="#F72717"/>
</svg>
