<svg width="93" height="56" viewBox="0 0 93 56" fill="none" xmlns="http://www.w3.org/2000/svg">
<rect x="0.578979" width="91.5789" height="55.2631" rx="8" fill="black"/>
<path fill-rule="evenodd" clip-rule="evenodd" d="M68.4055 43.6081V41.4331H69.3085V47.2935H68.4055V46.79C68.265 46.9712 68.0844 47.1323 67.8636 47.233C67.663 47.3337 67.4021 47.3941 67.1011 47.3941C66.8 47.3941 66.5392 47.3337 66.2783 47.233C66.0174 47.1122 65.7966 46.9712 65.616 46.7698C65.4354 46.5886 65.2749 46.3469 65.1745 46.0851C65.0742 45.8032 65.014 45.5213 65.014 45.199C65.014 44.8768 65.0742 44.5747 65.1745 44.3129C65.2749 44.0511 65.4354 43.8296 65.616 43.6282C65.8167 43.4268 66.0174 43.2657 66.2783 43.165C66.5392 43.0643 66.8 43.0039 67.1011 43.0039C67.4021 43.0039 67.6429 43.0442 67.8636 43.165C68.0844 43.2657 68.265 43.4268 68.4055 43.6081ZM68.1045 46.1254C68.2249 46.0046 68.3051 45.8636 68.3653 45.7025C68.4255 45.5414 68.4657 45.3601 68.4657 45.1789C68.4657 44.9976 68.4255 44.8164 68.3653 44.6553C68.3051 44.4942 68.2048 44.3532 68.1045 44.2324C67.984 44.1115 67.8636 44.0109 67.7031 43.9504C67.5626 43.89 67.382 43.8497 67.2014 43.8497C67.0007 43.8497 66.8402 43.8699 66.6796 43.9504C66.5191 44.0109 66.3786 44.1115 66.2783 44.2324C66.1779 44.3532 66.0977 44.4942 66.0374 44.6553C65.9772 44.8164 65.9572 44.9976 65.9572 45.1789C65.9572 45.3601 65.9772 45.5414 66.0374 45.7025C66.0977 45.8636 66.1779 46.0046 66.2783 46.1254C66.3987 46.2462 66.5191 46.3268 66.6796 46.4074C66.8201 46.4678 67.0007 46.508 67.2014 46.508C67.382 46.508 67.5425 46.4678 67.7031 46.4074C67.8636 46.3469 68.0041 46.2462 68.1045 46.1254ZM43.4008 46.4275C43.2603 46.4879 43.1198 46.508 42.9794 46.508C42.879 46.508 42.7988 46.4879 42.7185 46.4678L42.7185 46.4678C42.6382 46.4476 42.578 46.3872 42.5178 46.3268C42.4576 46.2664 42.4175 46.1858 42.3773 46.0851C42.3372 45.9844 42.3171 45.8636 42.3171 45.7226V43.9102H43.762V43.0845H42.3171V41.8157H41.4141V43.0845H40.5712V43.9102H41.394V45.7428C41.394 46.2865 41.5345 46.7094 41.7954 46.9712C42.0562 47.233 42.4175 47.374 42.8991 47.374C43.16 47.374 43.4008 47.3337 43.6015 47.2532C43.7419 47.1928 43.8622 47.1324 43.9826 47.072L43.9826 47.072L43.9826 47.072L43.9826 47.072L43.9826 47.072L43.9826 47.072L43.9828 47.0719L43.6817 46.3066C43.6316 46.3268 43.5864 46.3469 43.5413 46.3671C43.4961 46.3872 43.451 46.4073 43.4008 46.4275ZM29.7947 43.4469C29.6542 43.3059 29.4736 43.1851 29.2729 43.1045C29.0722 43.024 28.8515 42.9837 28.6107 42.9837C28.4903 42.9837 28.3498 43.0039 28.2093 43.024C28.0688 43.0441 27.9484 43.0844 27.8079 43.1448C27.6875 43.2052 27.5471 43.2858 27.4467 43.3664C27.3263 43.467 27.226 43.5879 27.1457 43.7288C27.0052 43.4872 26.8246 43.3059 26.5838 43.1851C26.343 43.0441 26.062 42.9837 25.761 42.9837H25.761C25.6607 42.9837 25.5603 42.9837 25.4399 43.0039C25.3195 43.024 25.2192 43.0643 25.1188 43.1045C25.0185 43.1448 24.8981 43.2052 24.7978 43.2858C24.6974 43.3664 24.6171 43.467 24.5369 43.5879V43.0844H23.674V47.2531H24.5569V44.9372C24.5569 44.7559 24.577 44.5948 24.6372 44.474C24.6974 44.333 24.7777 44.2122 24.858 44.1316C24.9583 44.0309 25.0586 43.9705 25.179 43.9302C25.2995 43.89 25.4399 43.8497 25.5804 43.8497C25.8814 43.8497 26.1022 43.9504 26.2627 44.1316C26.4233 44.3129 26.5035 44.5948 26.5035 44.9372V47.2531H27.3865V44.9372C27.3865 44.7559 27.4066 44.5948 27.4668 44.474C27.527 44.333 27.6073 44.2122 27.6875 44.1316C27.7879 44.0309 27.8882 43.9705 28.0086 43.9302C28.129 43.89 28.2695 43.8497 28.41 43.8497C28.711 43.8497 28.9318 43.9504 29.0923 44.1316C29.2528 44.3129 29.3331 44.5948 29.3331 44.9372V47.2531H30.2161V44.6351C30.2161 44.3934 30.176 44.1719 30.0957 43.9705C30.0556 43.7691 29.9552 43.608 29.7947 43.4469ZM34.4504 43.6081C34.3099 43.4268 34.1293 43.2657 33.9086 43.165C33.6878 43.0442 33.447 43.0039 33.146 43.0039C32.845 43.0039 32.5841 43.0643 32.3232 43.165C32.0623 43.2657 31.8616 43.4268 31.661 43.6282C31.4803 43.8296 31.3198 44.0511 31.2195 44.3129C31.1191 44.5747 31.0589 44.8768 31.0589 45.199C31.0589 45.5213 31.1191 45.8032 31.2195 46.0851C31.3198 46.3469 31.4803 46.5886 31.661 46.7698C31.8416 46.9712 32.0623 47.1122 32.3232 47.233C32.5841 47.3337 32.845 47.3941 33.146 47.3941C33.447 47.3941 33.7079 47.3337 33.9086 47.233C34.1293 47.1323 34.3099 46.9712 34.4504 46.79V47.2935H35.3535V43.1248H34.4504V43.6081ZM34.4103 45.7025C34.3501 45.8636 34.2698 46.0046 34.1494 46.1254C34.049 46.2462 33.9086 46.3469 33.748 46.4074C33.5875 46.4678 33.4269 46.508 33.2463 46.508C33.0456 46.508 32.865 46.4678 32.7246 46.4074C32.564 46.3268 32.4436 46.2462 32.3232 46.1254C32.2229 46.0046 32.1426 45.8636 32.0824 45.7025C32.0222 45.5414 32.0021 45.3601 32.0021 45.1789C32.0021 44.9977 32.0222 44.8164 32.0824 44.6553C32.1426 44.4942 32.2229 44.3532 32.3232 44.2324C32.4235 44.1116 32.564 44.0109 32.7246 43.9504C32.8851 43.8699 33.0456 43.8497 33.2463 43.8497C33.4269 43.8497 33.6076 43.89 33.748 43.9504C33.9086 44.0109 34.029 44.1116 34.1494 44.2324C34.2497 44.3532 34.3501 44.4942 34.4103 44.6553C34.4705 44.8164 34.5106 44.9977 34.5106 45.1789C34.5106 45.3601 34.4705 45.5414 34.4103 45.7025ZM38.444 44.7761C38.9055 44.8567 39.2467 44.9775 39.5076 45.1789C39.7684 45.3803 39.8888 45.6421 39.8888 46.0247C39.8888 46.2261 39.8487 46.4074 39.7684 46.5685C39.6882 46.7296 39.5678 46.8705 39.4072 46.9914C39.2467 47.1122 39.046 47.2129 38.8052 47.2733C38.5644 47.3337 38.3035 47.374 38.0025 47.374H38.0024C37.882 47.374 37.7616 47.374 37.6212 47.3539C37.4807 47.3337 37.3402 47.3136 37.1797 47.2733C37.0191 47.233 36.8586 47.1726 36.698 47.1122C36.5174 47.0317 36.3569 46.9511 36.2164 46.8303L36.6378 46.1456C36.678 46.1758 36.7181 46.2009 36.7582 46.2261C36.7984 46.2513 36.8385 46.2765 36.8787 46.3067C36.9589 46.3671 37.0593 46.4074 37.1797 46.4476C37.28 46.4879 37.4004 46.5282 37.5409 46.5483C37.6814 46.5685 37.8419 46.5886 38.0025 46.5886C38.3035 46.5886 38.5443 46.5483 38.7048 46.4476C38.8654 46.3671 38.9457 46.2462 38.9457 46.0851C38.9457 45.9643 38.8854 45.8636 38.765 45.7831C38.6446 45.7226 38.464 45.6622 38.2232 45.6219L37.7817 45.5615C37.3201 45.5011 36.979 45.3601 36.7382 45.1588C36.4974 44.9574 36.377 44.6956 36.377 44.3532C36.377 44.1317 36.4171 43.9504 36.4974 43.7893C36.5776 43.6282 36.698 43.4873 36.8385 43.3664C36.9991 43.2456 37.1596 43.165 37.3804 43.1046C37.6011 43.0442 37.8419 43.0039 38.1028 43.0039C38.4239 43.0039 38.745 43.0442 39.0259 43.1248C39.3269 43.2053 39.5678 43.306 39.7885 43.447L39.4072 44.1518C39.3805 44.1384 39.356 44.125 39.3315 44.1116L39.3315 44.1116L39.3315 44.1116L39.3315 44.1116L39.3315 44.1116L39.3314 44.1116L39.3314 44.1116L39.3314 44.1116L39.3314 44.1116L39.3314 44.1115C39.2823 44.0847 39.2333 44.0578 39.1664 44.031C39.0861 43.9907 38.9858 43.9504 38.8654 43.9102C38.8052 43.9001 38.745 43.885 38.6848 43.8699L38.6848 43.8699C38.6246 43.8548 38.5644 43.8397 38.5042 43.8296C38.3837 43.8095 38.2433 43.7893 38.1229 43.7893C37.862 43.7893 37.6814 43.8296 37.5409 43.9303C37.4004 44.031 37.3402 44.1518 37.3402 44.2928C37.3402 44.3734 37.3603 44.4338 37.4004 44.474L37.4004 44.4741C37.4406 44.5143 37.4807 44.5546 37.5409 44.5949C37.6011 44.6352 37.6814 44.6553 37.7616 44.6754L37.7616 44.6754C37.8281 44.6754 37.8946 44.6893 37.9726 44.7054L38.0225 44.7157L38.444 44.7761ZM47.9963 43.5879C47.8157 43.3865 47.615 43.2455 47.3742 43.1448C47.1334 43.0441 46.8725 42.9837 46.5715 42.9837C46.2705 42.9837 45.9895 43.0441 45.7286 43.1448C45.4677 43.2455 45.2671 43.4066 45.0664 43.5879C44.8858 43.7893 44.7453 44.0108 44.645 44.2726C44.5446 44.5344 44.4844 44.8365 44.4844 45.1587C44.4844 45.4809 44.5446 45.783 44.645 46.0649C44.7453 46.3267 44.8858 46.5684 45.0864 46.7496C45.2671 46.951 45.5079 47.092 45.7487 47.1927C46.0096 47.2934 46.2905 47.3538 46.6116 47.3538C46.9327 47.3538 47.2337 47.3135 47.5147 47.233C47.7956 47.1524 48.0766 46.9913 48.3174 46.7698L47.8759 46.1253C47.6953 46.2663 47.5147 46.367 47.2939 46.4476C47.0932 46.5281 46.8725 46.5684 46.6718 46.5684C46.5313 46.5684 46.3909 46.5483 46.2504 46.508C46.1099 46.4677 45.9895 46.4073 45.8892 46.3267C45.7888 46.2462 45.6885 46.1253 45.6082 46.0045C45.5279 45.8635 45.4677 45.7024 45.4477 45.5212H48.5181C48.5181 45.491 48.5231 45.4658 48.5281 45.4406C48.5331 45.4155 48.5381 45.3903 48.5381 45.3601V45.1788C48.5381 44.8566 48.498 44.5545 48.3977 44.2927C48.2973 44.0108 48.1769 43.7893 47.9963 43.5879ZM45.4677 44.8163C45.4878 44.6754 45.5279 44.5344 45.5881 44.3934C45.6483 44.2726 45.7286 44.1518 45.8089 44.0712C45.9092 43.9705 46.0096 43.9101 46.13 43.8698C46.2504 43.8295 46.3909 43.7893 46.5514 43.7893C46.8324 43.7893 47.0732 43.8698 47.2538 44.0511C47.4344 44.2323 47.5548 44.474 47.5949 44.8163H45.4677ZM59.4952 43.165C59.716 43.2657 59.8966 43.4268 60.0371 43.6081V43.1248H60.9401V47.2935H60.0371V46.79C59.8966 46.9712 59.6959 47.1323 59.4952 47.233C59.2946 47.3337 59.0337 47.3941 58.7327 47.3941C58.4316 47.3941 58.1707 47.3337 57.9099 47.233C57.649 47.1122 57.4282 46.9712 57.2476 46.7698C57.067 46.5886 56.9065 46.3469 56.8061 46.0851C56.7058 45.8032 56.6456 45.5213 56.6456 45.199C56.6456 44.8768 56.7058 44.5747 56.8061 44.3129C56.9065 44.0511 57.067 43.8296 57.2476 43.6282C57.4483 43.4268 57.649 43.2657 57.9099 43.165C58.1707 43.0643 58.4316 43.0039 58.7327 43.0039C59.0337 43.0039 59.2745 43.0442 59.4952 43.165ZM59.736 46.1254C59.8565 46.0046 59.9367 45.8636 59.9969 45.7025C60.0571 45.5414 60.0973 45.3601 60.0973 45.1789C60.0973 44.9977 60.0571 44.8164 59.9969 44.6553C59.9367 44.4942 59.8364 44.3532 59.736 44.2324C59.6156 44.1116 59.4952 44.0109 59.3347 43.9504C59.1942 43.89 59.0136 43.8497 58.833 43.8497C58.6323 43.8497 58.4718 43.8699 58.3112 43.9504C58.1507 44.0109 58.0102 44.1116 57.9099 44.2324C57.8095 44.3532 57.7293 44.4942 57.6691 44.6553C57.6088 44.8164 57.5888 44.9977 57.5888 45.1789C57.5888 45.3601 57.6088 45.5414 57.6691 45.7025C57.7293 45.8636 57.8095 46.0046 57.9099 46.1254C58.0303 46.2462 58.1707 46.3469 58.3112 46.4074C58.4517 46.4678 58.6323 46.508 58.833 46.508C59.0136 46.508 59.1741 46.4678 59.3347 46.4074C59.4952 46.3469 59.6357 46.2462 59.736 46.1254ZM50.8861 43.1247C51.0868 43.024 51.3075 42.9837 51.5684 42.9837C51.6445 42.9837 51.7207 42.9896 51.7904 42.9951C51.8494 42.9996 51.9037 43.0039 51.9497 43.0039C51.9898 43.0139 52.025 43.024 52.0601 43.0341C52.0952 43.0441 52.1303 43.0542 52.1704 43.0643L51.9096 43.9302C51.8795 43.9202 51.8494 43.9151 51.8193 43.9101C51.7892 43.9051 51.7591 43.9 51.729 43.89L51.6687 43.8812C51.5537 43.8644 51.4534 43.8497 51.3677 43.8497C51.2273 43.8497 51.0868 43.89 50.9664 43.9302L50.9664 43.9302C50.846 43.9907 50.7256 44.0511 50.6453 44.1518C50.565 44.2323 50.4847 44.3531 50.4446 44.4941C50.3844 44.6351 50.3643 44.7962 50.3643 44.9774V47.2732H49.5415V43.1045H50.3643V43.6483C50.5048 43.4469 50.6854 43.2254 50.8861 43.1247ZM64.1712 42.9837C63.9103 42.9837 63.6895 43.024 63.4888 43.1247C63.2882 43.2254 63.1076 43.4469 62.9671 43.6483V43.1045H62.1443V47.2732H62.9671V44.9774C62.9671 44.7962 62.9871 44.6351 63.0474 44.4941C63.0875 44.3531 63.1678 44.2323 63.248 44.1518C63.3283 44.0511 63.4487 43.9907 63.5691 43.9302C63.6895 43.89 63.83 43.8497 63.9705 43.8497C64.0562 43.8497 64.1565 43.8644 64.2715 43.8812L64.3317 43.89C64.3618 43.9 64.3919 43.9051 64.422 43.9101C64.4521 43.9151 64.4822 43.9202 64.5123 43.9302L64.7732 43.0643C64.7331 43.0542 64.6979 43.0441 64.6628 43.0341C64.6277 43.024 64.5926 43.0139 64.5524 43.0039C64.4946 43.0039 64.4367 42.9992 64.3766 42.9944C64.3116 42.9891 64.2441 42.9837 64.1712 42.9837ZM53.7357 44.2122C53.8562 44.0913 53.9966 44.0108 54.1572 43.9302C54.3177 43.8698 54.4783 43.8295 54.6789 43.8295C54.8796 43.8295 55.0803 43.8698 55.2408 43.9302C55.4014 43.9907 55.5619 44.0712 55.6823 44.192L56.1238 43.467C55.9633 43.3261 55.7827 43.2254 55.5619 43.1448C55.281 43.024 55 42.9837 54.6789 42.9837C54.3579 42.9837 54.0568 43.0441 53.7959 43.1448C53.515 43.2657 53.2943 43.4066 53.0936 43.608C52.8929 43.8094 52.7324 44.0309 52.632 44.2927C52.5116 44.5545 52.4715 44.8566 52.4715 45.1587C52.4715 45.4809 52.5317 45.7628 52.632 46.0247C52.7524 46.2865 52.8929 46.5281 53.0936 46.7094C53.2943 46.9108 53.5351 47.0517 53.7959 47.1726C54.0769 47.2934 54.3579 47.3337 54.6789 47.3337C55 47.3337 55.3011 47.2732 55.5619 47.1726C55.7626 47.092 55.9432 46.9913 56.1238 46.8503L55.6823 46.1253C55.5619 46.2462 55.4215 46.3267 55.2408 46.3871C55.0602 46.4476 54.8796 46.4878 54.6789 46.4878C54.4983 46.4878 54.3177 46.4476 54.1572 46.3871C53.9966 46.3267 53.8562 46.226 53.7357 46.1052C53.6153 45.9844 53.5351 45.8434 53.4548 45.6823C53.3946 45.5212 53.3545 45.3399 53.3545 45.1386C53.3545 44.9372 53.3946 44.7559 53.4548 44.5948C53.5351 44.474 53.6354 44.333 53.7357 44.2122ZM71.3755 46.6892C71.3353 46.6691 71.2751 46.6489 71.2149 46.6489C71.1547 46.6489 71.0945 46.6691 71.0343 46.6892C71.0182 46.7 71.0035 46.7093 70.9899 46.718C70.9526 46.7417 70.9232 46.7604 70.8938 46.7899C70.8537 46.8302 70.8136 46.8705 70.7935 46.9309C70.7734 46.9712 70.7534 47.0316 70.7534 47.092C70.7534 47.1398 70.7659 47.175 70.7811 47.2175C70.7851 47.2288 70.7893 47.2405 70.7935 47.2531C70.8042 47.2693 70.8136 47.284 70.8222 47.2977C70.8458 47.3351 70.8644 47.3646 70.8938 47.3941C70.934 47.4343 70.9741 47.4746 71.0343 47.4948C71.0945 47.5149 71.1547 47.535 71.2149 47.535C71.2626 47.535 71.2976 47.5224 71.34 47.5072C71.3512 47.5032 71.3629 47.499 71.3755 47.4948C71.3916 47.484 71.4063 47.4746 71.4199 47.466C71.4572 47.4422 71.4866 47.4236 71.5159 47.3941C71.5561 47.3538 71.5962 47.3135 71.6163 47.2531C71.6363 47.2128 71.6564 47.1524 71.6564 47.092C71.6564 47.0442 71.6438 47.009 71.6287 46.9664C71.6247 46.9552 71.6205 46.9435 71.6163 46.9309C71.6055 46.9147 71.5962 46.8999 71.5876 46.8862C71.5639 46.8489 71.5453 46.8194 71.5159 46.7899C71.4758 46.7496 71.4357 46.7093 71.3755 46.6892ZM71.3855 47.3437C71.3704 47.3538 71.3554 47.3639 71.3353 47.3739C71.2952 47.3941 71.2551 47.3941 71.2149 47.3941C71.1949 47.3941 71.1748 47.389 71.1547 47.384C71.1346 47.379 71.1146 47.3739 71.0945 47.3739C71.0544 47.3538 71.0142 47.3337 70.9942 47.3135C70.9841 47.2934 70.9741 47.2783 70.9641 47.2632C70.954 47.2481 70.944 47.233 70.934 47.2128C70.9139 47.1725 70.9139 47.1323 70.9139 47.092C70.9139 47.0517 70.9139 47.0114 70.934 46.9712L70.934 46.9711C70.9541 46.9308 70.9741 46.8906 70.9942 46.8705C71.0142 46.8604 71.0293 46.8503 71.0443 46.8403C71.0594 46.8302 71.0744 46.8201 71.0945 46.81C71.1346 46.7899 71.1748 46.7899 71.2149 46.7899C71.2551 46.7899 71.2952 46.7899 71.3353 46.81C71.3755 46.8302 71.4156 46.8503 71.4357 46.8705C71.4457 46.8906 71.4557 46.9057 71.4658 46.9208C71.4758 46.9359 71.4858 46.951 71.4959 46.9712C71.5159 47.0114 71.5159 47.0517 71.5159 47.092C71.5159 47.1323 71.5159 47.1725 71.4959 47.2128C71.4758 47.2531 71.4557 47.2934 71.4357 47.3135C71.4156 47.3236 71.4006 47.3336 71.3855 47.3437ZM71.3554 46.9309C71.3353 46.9107 71.2952 46.8906 71.235 46.8906V46.9107H71.0544V47.2934H71.1547V47.1524H71.1748L71.2751 47.2934H71.4156L71.2952 47.1524C71.3353 47.1524 71.3554 47.1323 71.3755 47.1121C71.3955 47.092 71.3955 47.0718 71.3955 47.0316C71.3955 46.9913 71.3755 46.951 71.3554 46.9309ZM71.1547 47.0517V47.0114H71.235H71.2751C71.2851 47.0114 71.2902 47.0114 71.2927 47.0139C71.2952 47.0165 71.2952 47.0215 71.2952 47.0316L71.2751 47.0517H71.235H71.1547Z" fill="white"/>
<path d="M40.5109 23.5478C40.5109 18.5709 42.8388 14.156 46.4511 11.2863C43.782 9.15906 40.4106 7.89478 36.7582 7.89478C28.1089 7.89478 21.1052 14.8985 21.1052 23.5478C21.1052 32.1971 28.1089 39.2008 36.7582 39.2008C40.4307 39.2008 43.8021 37.9365 46.4711 35.8294C42.8388 32.9396 40.5109 28.5046 40.5109 23.5478Z" fill="#E30D17"/>
<path d="M46.4511 35.8093C49.7317 35.8093 52.3912 30.3196 52.3912 23.5478C52.3912 16.7759 49.7317 11.2863 46.4511 11.2863C43.1705 11.2863 40.511 16.7759 40.511 23.5478C40.511 30.3196 43.1705 35.8093 46.4511 35.8093Z" fill="#EB610A"/>
<path d="M70.7534 31.9964V31.5348H70.5728V31.4144H71.0745V31.5348H70.8738V31.9964H70.7534ZM71.7166 31.9964V31.595L71.5762 31.9362H71.4357L71.2952 31.595V31.9964H71.1547V31.4144H71.3554L71.4959 31.7957L71.6364 31.4144H71.837V31.9964H71.7166Z" fill="#F69F00"/>
<path d="M56.1639 7.89478C52.4915 7.89478 49.1201 9.15906 46.451 11.2662C50.0633 14.1359 52.3912 18.5509 52.3912 23.5277C52.3912 28.5046 50.0633 32.9195 46.451 35.7892C49.1201 37.8964 52.4915 39.1606 56.1639 39.1606C64.8132 39.1606 71.8169 32.1569 71.8169 23.5076C71.8169 14.8584 64.7932 7.89478 56.1639 7.89478Z" fill="#F69F00"/>
</svg>
