<svg width="148" height="148" viewBox="0 0 148 148" fill="none" xmlns="http://www.w3.org/2000/svg">
<g filter="url(#filter0_d_5_58)">
<rect x="4" width="140" height="140" rx="10" fill="#EFEFEF"/>
<rect x="5" y="1" width="138" height="138" rx="9" stroke="white" stroke-width="2"/>
</g>
<g clip-path="url(#clip0_5_58)">
<path d="M60.566 60.4739H60.2865L56.5368 68.1602L46.615 86.4463L36.6933 68.1602L32.9435 60.4739H32.6641V95.1709H24V46.8291H34.341L46.7625 70.446H47.042L59.3161 46.8291H69.2378V95.1709H60.566V60.4739Z" fill="#1E65AE"/>
<path d="M91.4104 96C87.2491 96 83.7167 95.2562 80.8287 93.784C77.9407 92.304 75.4486 90.3592 73.368 87.9572L79.54 81.991C81.2091 83.9126 83.0646 85.3848 85.1219 86.3921C87.1793 87.3993 89.4617 87.903 91.9538 87.903C94.7719 87.903 96.9069 87.2986 98.3354 86.0821C99.7716 84.8656 100.486 83.2307 100.486 81.1697C100.486 79.5658 100.02 78.2641 99.0962 77.249C98.1724 76.2418 96.4333 75.5057 93.8947 75.0485L89.3142 74.3589C79.6487 72.8325 74.812 68.1447 74.812 60.2802C74.812 58.1106 75.2157 56.1426 76.0231 54.3837C76.8305 52.6248 78.0028 51.1294 79.5245 49.8742C81.0539 48.6267 82.886 47.6659 85.0443 46.9995C87.1948 46.3332 89.6325 45.9923 92.3653 45.9923C96.0219 45.9923 99.2127 46.5966 101.938 47.7976C104.663 48.9986 106.999 50.7807 108.948 53.1362L102.706 59.0327C101.503 57.5683 100.043 56.3828 98.3354 55.4607C96.6197 54.5464 94.4692 54.0893 91.8839 54.0893C89.2987 54.0893 87.2724 54.5852 85.9526 55.5692C84.6328 56.5532 83.9729 57.9402 83.9729 59.7223C83.9729 61.5044 84.5009 62.9069 85.5722 63.7747C86.6358 64.6425 88.3515 65.2856 90.7039 65.6963L95.2145 66.5253C100.113 67.4009 103.739 68.9661 106.076 71.2053C108.412 73.4446 109.577 76.5749 109.577 80.5963C109.577 82.9053 109.173 84.9974 108.366 86.8725C107.558 88.7476 106.378 90.3592 104.826 91.7229C103.273 93.0866 101.379 94.1404 99.135 94.8765C96.8914 95.6126 94.3139 95.9845 91.3948 95.9845L91.4104 96Z" fill="#67B1FF"/>
<path d="M123 46.4184H113.723V95.5893H123V46.4184Z" fill="#92CAFF"/>
</g>
<defs>
<filter id="filter0_d_5_58" x="0" y="0" width="148" height="148" filterUnits="userSpaceOnUse" color-interpolation-filters="sRGB">
<feFlood flood-opacity="0" result="BackgroundImageFix"/>
<feColorMatrix in="SourceAlpha" type="matrix" values="0 0 0 0 0 0 0 0 0 0 0 0 0 0 0 0 0 0 127 0" result="hardAlpha"/>
<feOffset dy="4"/>
<feGaussianBlur stdDeviation="2"/>
<feComposite in2="hardAlpha" operator="out"/>
<feColorMatrix type="matrix" values="0 0 0 0 0 0 0 0 0 0 0 0 0 0 0 0 0 0 0.25 0"/>
<feBlend mode="normal" in2="BackgroundImageFix" result="effect1_dropShadow_5_58"/>
<feBlend mode="normal" in="SourceGraphic" in2="effect1_dropShadow_5_58" result="shape"/>
</filter>
<clipPath id="clip0_5_58">
<rect width="99" height="50" fill="white" transform="translate(24 46)"/>
</clipPath>
</defs>
</svg>
