<svg width="92" height="56" viewBox="0 0 92 56" fill="none" xmlns="http://www.w3.org/2000/svg">
<rect x="0.0528564" width="91.5789" height="55.2631" rx="8" fill="#FD6250"/>
<path fill-rule="evenodd" clip-rule="evenodd" d="M54.9331 20.134C54.9331 21.2278 54.0507 22.1102 52.957 22.1102C51.8632 22.1102 50.9808 21.2278 50.9808 20.134C50.9808 19.0402 51.8685 18.1578 52.957 18.1578C54.0507 18.1578 54.9331 19.0402 54.9331 20.134ZM15.2405 29.8564C15.1454 30.1893 15.0609 30.5063 14.9869 30.8128C14.9511 30.958 14.9168 31.0979 14.8837 31.2329L14.8837 31.233C14.8289 31.4566 14.7774 31.6666 14.728 31.8643C14.6487 32.1708 14.5959 32.4191 14.5642 32.5988C14.5008 32.9211 14.2894 33.1219 13.9565 33.1853C13.6659 33.2434 13.3594 33.217 13.0371 33.1166C12.7201 33.0162 12.4348 32.8366 12.1864 32.5882C11.9222 32.324 11.7901 31.9964 11.7901 31.6107C11.7901 31.2937 11.8694 30.797 12.0332 30.0889C12.1917 29.3967 12.4189 28.5724 12.7148 27.6478C13.0054 26.7284 13.3594 25.7139 13.761 24.6307C14.0992 23.7007 14.4902 22.7654 14.9129 21.846C15.0503 21.5449 15.3356 21.3388 15.6685 21.2965C16.4135 21.212 17.0635 21.2331 17.613 21.3599C17.9459 21.4392 18.1202 21.7985 17.9829 22.1049C17.6288 22.8975 17.3012 23.6848 17.0106 24.451C16.7818 25.0511 16.5676 25.6414 16.3587 26.2172L16.3587 26.2173L16.3343 26.2845C16.3131 26.3426 16.3713 26.4008 16.4294 26.3743C16.7147 26.2422 16.9948 26.089 17.2695 25.9146C17.7187 25.624 18.1308 25.2806 18.4901 24.8896C18.8494 24.4986 19.14 24.0547 19.362 23.5792C19.5786 23.1036 19.6896 22.5858 19.6896 22.0415C19.6896 21.3441 19.4941 20.8262 19.1136 20.5092C18.7279 20.1869 18.1836 20.0231 17.4967 20.0231C16.7623 20.0231 16.0965 20.1975 15.51 20.5409C14.9076 20.8896 14.3845 21.3229 13.9618 21.8249C13.5338 22.3269 13.1956 22.8658 12.9579 23.4259C12.7254 23.9807 12.6038 24.4669 12.6038 24.8684C12.6038 25.159 12.4506 25.3651 12.1759 25.4549C11.9328 25.5342 11.6633 25.5236 11.3885 25.418C11.1244 25.3176 10.876 25.1273 10.6594 24.842C10.4269 24.5567 10.3159 24.171 10.3159 23.6901C10.3159 23.2727 10.4744 22.7813 10.7968 22.1842C11.1138 21.603 11.5841 21.0429 12.1917 20.5092C12.7994 19.9755 13.5602 19.5158 14.4638 19.1354C15.3726 18.755 16.4241 18.5594 17.5866 18.5594C18.2471 18.5594 18.9128 18.6387 19.5575 18.7919C20.2074 18.9452 20.7992 19.1829 21.3117 19.4894C21.8295 19.8012 22.2575 20.1975 22.5799 20.6572C22.9075 21.1274 23.0713 21.677 23.0713 22.2952C23.0713 22.9609 22.9233 23.5844 22.638 24.1445C22.3526 24.7046 21.9616 25.2119 21.4702 25.661C20.9841 26.1049 20.4135 26.4959 19.7635 26.8235C19.2299 27.0929 18.6592 27.3254 18.0727 27.5104C18.0357 27.5209 18.0198 27.5421 18.0251 27.5791C18.0357 27.875 18.0568 28.1603 18.0885 28.4403C18.1202 28.7627 18.1678 29.0744 18.2206 29.3703C18.2735 29.6609 18.3369 29.9463 18.4109 30.2157C18.469 30.4218 18.5324 30.6279 18.5958 30.8181C18.63 30.9165 18.6677 31.015 18.7033 31.1078L18.7033 31.1079L18.7279 31.1721C18.8177 31.3993 18.9234 31.616 19.0291 31.8168C19.1347 32.0123 19.251 32.2025 19.3725 32.3769C19.4888 32.5459 19.6156 32.7045 19.7477 32.8471C19.8745 32.9845 20.0119 33.1166 20.1493 33.2328C20.2866 33.3438 20.4293 33.4442 20.5773 33.534C20.7199 33.6186 20.8679 33.6925 21.0211 33.7559C21.1691 33.8141 21.3276 33.8669 21.4861 33.8986C21.6446 33.9356 21.8031 33.9567 21.9669 33.9673C22.1307 33.9779 22.2998 33.9726 22.4689 33.962C22.6433 33.9462 22.8176 33.9198 22.992 33.8775C23.1716 33.8352 23.3513 33.7771 23.5362 33.7084C23.7212 33.6397 23.9114 33.5552 24.0963 33.4548C24.114 33.4453 24.132 33.4358 24.1501 33.4262C24.2027 33.3984 24.2566 33.3699 24.3077 33.3385C24.5402 33.2064 24.8361 33.2698 24.9893 33.4865C25.1425 33.7031 25.1108 34.0043 24.9101 34.1787C24.8598 34.2209 24.811 34.2632 24.7621 34.3055C24.7132 34.3478 24.6643 34.39 24.6142 34.4323C24.3764 34.6278 24.1386 34.8074 23.9061 34.9712C23.6842 35.1245 23.457 35.2671 23.2351 35.394C23.1241 35.4574 23.0078 35.5208 22.8863 35.5789C22.6591 35.6951 22.4266 35.7955 22.1994 35.8801C21.9722 35.9646 21.745 36.0333 21.5231 36.0914C21.3011 36.1443 21.0792 36.1865 20.8573 36.2077C20.7041 36.2235 20.5456 36.2341 20.3923 36.2341C20.3289 36.2341 20.2708 36.2341 20.2074 36.2288C19.996 36.2182 19.7847 36.1971 19.5839 36.1548C19.4835 36.1337 19.3831 36.1126 19.2827 36.0809C19.1876 36.0544 19.0872 36.0227 18.9921 35.9858C18.8019 35.9171 18.6169 35.8325 18.4373 35.7321C18.2629 35.637 18.0885 35.5208 17.9247 35.3992C17.7926 35.2988 17.6605 35.1879 17.539 35.0716C17.3911 34.929 17.2431 34.7757 17.1057 34.6067C16.9683 34.4429 16.8415 34.2632 16.72 34.0783C16.5985 33.8933 16.4822 33.6925 16.3766 33.4918C16.2709 33.2857 16.1705 33.069 16.0807 32.8471C15.9908 32.6252 15.9063 32.3927 15.8323 32.1496C15.7583 31.9119 15.6896 31.6582 15.6315 31.3993C15.5734 31.1404 15.5206 30.8709 15.4783 30.5962C15.4413 30.3531 15.4096 30.1048 15.3832 29.8511C15.3726 29.793 15.2616 29.7825 15.2405 29.8564ZM54.0244 27.8538C54.2146 27.8538 54.3995 27.9542 54.4946 28.1022C54.5897 28.2501 54.5844 28.4245 54.4999 28.5619C54.3784 28.7574 54.1565 29.0903 53.8341 29.5711C53.5118 30.0467 53.1314 30.5381 52.6928 31.0348C52.249 31.5367 51.7628 31.9806 51.2503 32.3557C50.7113 32.752 50.1618 32.9528 49.6281 32.9528C49.1473 32.9528 48.7827 32.7837 48.5555 32.4508C48.3494 32.1444 48.2438 31.7322 48.2438 31.2303V31.151C48.2438 31.0876 48.1751 31.0559 48.1275 31.0929C48.1101 31.1066 48.0926 31.1205 48.0749 31.1344C47.9905 31.2012 47.9031 31.2704 47.8158 31.3359C47.187 31.8115 46.4578 32.2131 45.6546 32.5301C44.936 32.8154 44.1434 32.9581 43.3033 32.9581C43.1923 32.9581 43.0761 32.9581 42.9598 32.9528C42.3839 32.9528 41.9559 32.7732 41.6917 32.4139C41.6441 32.3504 41.6019 32.287 41.5649 32.2184C41.5385 32.1655 41.4539 32.1761 41.4381 32.2342C41.4132 32.3196 41.3884 32.4041 41.3638 32.4877C41.3047 32.6885 41.2472 32.8841 41.195 33.0743C41.0312 33.6503 40.8885 34.1523 40.767 34.6014C40.6455 35.0505 40.5398 35.4627 40.45 35.8273C40.3654 36.176 40.3073 36.456 40.2756 36.6674V36.6727C40.1964 37.069 39.9322 37.2064 39.7208 37.2539C39.6257 37.275 39.5306 37.2856 39.4302 37.2856C39.2505 37.2856 39.0603 37.2539 38.8701 37.1852C38.5795 37.0848 38.3153 36.9052 38.0881 36.6515C37.8556 36.3874 37.7341 36.0597 37.7341 35.6793C37.7341 35.6053 37.7499 35.4362 37.9031 34.8075C38.0194 34.3478 38.1673 33.7718 38.3576 33.1008C38.4844 32.6463 38.6323 32.1497 38.7908 31.6213C38.812 31.5579 38.738 31.505 38.6852 31.542C38.1251 31.9277 37.4963 32.2553 36.8094 32.5301C36.0908 32.8154 35.2982 32.9581 34.458 32.9581C34.3471 32.9581 34.2308 32.9581 34.1146 32.9528C33.5386 32.9528 33.1159 32.7732 32.8464 32.4139C32.7989 32.3504 32.7566 32.287 32.7196 32.2184C32.6932 32.1655 32.6087 32.1761 32.5928 32.2342C32.568 32.3196 32.5431 32.4041 32.5185 32.4877C32.4595 32.6885 32.402 32.8841 32.3497 33.0743C32.1807 33.6503 32.0433 34.1523 31.9217 34.6014C31.8002 35.0505 31.6945 35.4627 31.6047 35.8273C31.5202 36.176 31.462 36.456 31.4303 36.6674V36.6727C31.3511 37.069 31.0869 37.2064 30.8755 37.2539C30.7804 37.275 30.6853 37.2856 30.5849 37.2856C30.4053 37.2856 30.215 37.2539 30.0248 37.1852C29.7342 37.0848 29.47 36.9052 29.2428 36.6515C29.0103 36.3874 28.8888 36.065 28.8888 35.6793C28.8888 35.6 28.9046 35.431 29.0579 34.8075C29.1741 34.3425 29.3273 33.7665 29.5123 33.1008C29.6232 32.7045 29.7448 32.2818 29.8822 31.8273C29.9033 31.7587 29.8188 31.7058 29.7659 31.7534C29.5334 31.97 29.2904 32.1708 29.042 32.3557C28.5083 32.752 27.9694 32.9528 27.4304 32.9528C26.9496 32.9528 26.585 32.7837 26.3578 32.4508C26.2627 32.3187 26.194 32.1602 26.1411 31.9859C26.0989 31.8326 25.8981 31.7851 25.7871 31.9013C25.6286 32.0651 25.4542 32.2184 25.2693 32.3504C25.0315 32.5248 24.7568 32.6728 24.4661 32.7837C24.165 32.9 23.8426 32.9581 23.4992 32.9581C23.0395 32.9581 22.6326 32.8154 22.2945 32.5354C21.9669 32.2659 21.7238 31.8802 21.5706 31.3941C21.4226 30.9238 21.3645 30.3426 21.4068 29.6662C21.4437 29.0005 21.597 28.2501 21.8506 27.4417C22.3949 25.7667 23.1082 24.5197 23.9642 23.7377C24.8413 22.9398 25.729 22.5382 26.6008 22.5382C26.9707 22.5382 27.2825 22.6122 27.5308 22.7602C27.7739 22.9081 27.9588 23.0983 28.0856 23.3361C28.1702 23.4946 28.2336 23.6637 28.2706 23.8434C28.2758 23.8751 28.3181 23.8804 28.334 23.8539C28.3762 23.7747 28.4185 23.7007 28.4608 23.6373C28.6616 23.3097 28.9416 23.1036 29.2904 23.0244C29.6127 22.9504 29.935 22.9557 30.2362 23.0349C30.5479 23.1195 30.7963 23.2674 30.9812 23.4841C31.182 23.7166 31.2243 23.986 31.108 24.2555C31.0852 24.3241 31.0294 24.4503 30.9446 24.642C30.9118 24.7163 30.8746 24.8004 30.8333 24.8949C30.6853 25.2225 30.5162 25.624 30.326 26.0785C30.1411 26.5276 29.9508 27.0137 29.7606 27.5157C29.5757 28.0124 29.4277 28.4773 29.3273 28.8948C29.227 29.3016 29.19 29.6398 29.2111 29.8987C29.2322 30.1471 29.3221 30.1471 29.3749 30.1471C29.4489 30.1471 29.5757 30.1154 29.7712 29.9516C29.8822 29.8617 29.9931 29.7561 30.1094 29.6451C30.5585 29.2065 30.8597 28.7257 31.0605 28.1339C31.3247 27.3466 31.6047 26.5699 31.8953 25.8195C32.2018 25.0217 32.503 24.3031 32.7883 23.6901C32.9363 23.3731 33.1688 23.1617 33.4858 23.0561C33.7817 22.961 34.0829 22.9398 34.3788 22.9979C34.6747 23.0561 34.9336 23.1723 35.1502 23.352C35.2453 23.4312 35.3193 23.5158 35.3774 23.6056C35.3933 23.6267 35.4091 23.632 35.4303 23.6109C35.6839 23.3731 35.9692 23.1565 36.2704 22.961C36.7143 22.6756 37.2162 22.533 37.7658 22.533C38.2255 22.533 38.627 22.6756 38.9494 22.961C39.2611 23.2304 39.483 23.6214 39.6098 24.1181C39.7314 24.599 39.7578 25.1802 39.6838 25.846C39.6151 26.5065 39.4249 27.2568 39.1184 28.0811C38.8278 28.8631 38.5002 29.5447 38.1409 30.1154C37.9613 30.3901 37.7869 30.6543 37.602 30.8921C37.5808 30.9238 37.6178 30.9608 37.6495 30.9449C37.7552 30.8868 37.8609 30.8234 37.9665 30.7547C38.1356 30.6437 38.2994 30.5275 38.4579 30.406C39.0603 29.9463 39.5147 29.3122 39.7525 28.5883C39.7842 28.4985 39.8159 28.4034 39.8476 28.3083C40.1329 27.4628 40.4341 26.628 40.7406 25.8301C41.0471 25.0322 41.3482 24.3136 41.6336 23.7007C41.7815 23.3837 42.014 23.1723 42.3311 23.0666C42.627 22.9715 42.9281 22.9504 43.224 23.0085C43.5199 23.0666 43.7788 23.1829 43.9955 23.3625C44.0906 23.4418 44.1646 23.5263 44.2227 23.6162C44.2385 23.6373 44.2544 23.6426 44.2755 23.6214C44.5292 23.3837 44.8145 23.167 45.1157 22.9715C45.5595 22.6862 46.0668 22.5435 46.611 22.5435C47.0707 22.5435 47.4723 22.6862 47.7946 22.9715C48.1064 23.241 48.3283 23.632 48.4551 24.1287C48.5766 24.6095 48.6031 25.1908 48.5291 25.8565C48.4604 26.517 48.2702 27.2673 47.9637 28.0916C47.6731 28.8684 47.3455 29.5553 46.9862 30.1259C46.8065 30.4007 46.6322 30.6649 46.4472 30.9027C46.4261 30.9344 46.4631 30.9713 46.4948 30.9555C46.6005 30.8974 46.7061 30.834 46.8118 30.7653C47.0496 30.612 47.2768 30.443 47.4934 30.2686C48.0958 29.7719 48.5344 29.1061 48.7457 28.3558C48.8725 27.9014 49.0152 27.4523 49.1684 27.0137C49.4221 26.2898 49.6915 25.6135 49.9716 25.0005C50.2516 24.3876 50.4789 23.9332 50.6585 23.6426C50.8593 23.315 51.1393 23.1036 51.4986 23.0296C51.8315 22.961 52.1486 22.9662 52.4445 23.0455C52.7456 23.13 52.9887 23.278 53.1736 23.4946C53.3744 23.7271 53.4167 23.9966 53.3005 24.2661C53.2635 24.3612 53.1736 24.5778 53.0257 24.9054C52.8777 25.2383 52.7139 25.624 52.5184 26.089C52.3335 26.5329 52.1433 27.019 51.9531 27.5262C51.7681 28.0229 51.6202 28.4879 51.5198 28.9053C51.4194 29.3175 51.3824 29.6557 51.4035 29.9146C51.4247 30.1629 51.5145 30.1629 51.5673 30.1629C51.6413 30.1629 51.7681 30.1312 51.9636 29.9674C52.1539 29.8089 52.3546 29.6187 52.5607 29.3967C52.7668 29.1748 52.9676 28.9318 53.1525 28.6834C53.1975 28.621 53.2413 28.5606 53.2835 28.5024C53.3952 28.3483 53.4962 28.209 53.5805 28.0863C53.6809 27.9384 53.8447 27.8538 54.0244 27.8538ZM26.9284 26.7284C27.0394 26.2845 27.1134 25.883 27.1504 25.5289C27.1874 25.1855 27.1874 24.9001 27.1398 24.6835C27.0923 24.4404 27.0077 24.3876 26.9866 24.377C26.9813 24.3718 26.9707 24.3718 26.9602 24.3718C26.9337 24.3718 26.865 24.3823 26.7435 24.4722C26.5797 24.599 26.4001 24.7945 26.2046 25.0639C26.0038 25.344 25.803 25.6822 25.6022 26.0785C25.4014 26.4747 25.2059 26.9186 25.0157 27.3994C24.8307 27.875 24.6775 28.34 24.5718 28.7785C24.4609 29.2171 24.3922 29.6134 24.3605 29.9621C24.3288 30.3003 24.334 30.5856 24.371 30.8075C24.408 31.0453 24.4873 31.0982 24.5084 31.1087C24.519 31.114 24.5296 31.114 24.5401 31.114C24.5613 31.114 24.6299 31.1034 24.7515 31.0136C24.9206 30.8921 25.1002 30.6966 25.2957 30.4324C25.4965 30.1629 25.6973 29.8247 25.8981 29.4285C26.1042 29.0269 26.2997 28.583 26.4846 28.1075C26.6695 27.6319 26.8175 27.1669 26.9284 26.7284ZM36.4342 26.7389C36.5663 26.3004 36.6614 25.8988 36.7248 25.5501C36.7829 25.2119 36.7988 24.9319 36.7671 24.7099C36.7354 24.4722 36.6614 24.4246 36.6403 24.414C36.6297 24.4087 36.6191 24.4087 36.6086 24.4087C36.5822 24.4087 36.5135 24.4193 36.3814 24.5144C36.207 24.6412 36.0168 24.8367 35.8054 25.1009C35.5941 25.3651 35.3669 25.7033 35.1344 26.1049C34.9019 26.5012 34.6799 26.945 34.4792 27.4206C34.2784 27.9014 34.1093 28.3664 33.9772 28.805C33.8451 29.2435 33.75 29.6504 33.6866 30.0044C33.6232 30.3531 33.6073 30.6385 33.639 30.8551C33.6707 31.0929 33.7447 31.1404 33.7658 31.151C33.7764 31.1563 33.787 31.1563 33.7975 31.1563C33.824 31.1563 33.8926 31.1457 34.0247 31.0506C34.1991 30.9291 34.3893 30.7283 34.6007 30.4588C34.812 30.184 35.0393 29.8406 35.2612 29.4443C35.4884 29.0427 35.7156 28.5936 35.9322 28.118C36.133 27.6478 36.3021 27.1828 36.4342 26.7389ZM45.2795 26.7389C45.4116 26.3004 45.5067 25.8988 45.5701 25.5501C45.6335 25.2119 45.6494 24.9318 45.6124 24.7152C45.5807 24.4774 45.5067 24.4299 45.4855 24.4193C45.475 24.414 45.4644 24.414 45.4538 24.414C45.4274 24.414 45.3587 24.4246 45.2266 24.5197C45.0523 24.6412 44.8568 24.8367 44.6507 25.1009C44.4393 25.3651 44.2121 25.7033 43.9796 26.1049C43.7471 26.5012 43.5252 26.945 43.3244 27.4206C43.1236 27.9014 42.9546 28.3664 42.8225 28.805C42.6904 29.2435 42.5953 29.6504 42.5318 30.0044C42.4684 30.3531 42.4526 30.6385 42.4843 30.8551C42.516 31.0929 42.59 31.1404 42.6111 31.151C42.6217 31.1563 42.6322 31.1563 42.6428 31.1563C42.6692 31.1563 42.7379 31.1457 42.87 31.0506C43.0444 30.9291 43.2346 30.7283 43.446 30.4588C43.6573 30.184 43.8845 29.8406 44.1064 29.4443C44.3337 29.0427 44.5609 28.5936 44.7775 28.118C44.9783 27.6478 45.1474 27.1828 45.2795 26.7389Z" fill="white"/>
<path fill-rule="evenodd" clip-rule="evenodd" d="M72.3806 29.2065V29.8723H73.7756V23.4629H72.3595V24.1075C72.164 23.7905 71.7835 23.5686 71.4824 23.4682C71.1812 23.3678 70.8747 23.3149 70.5577 23.3149C69.7704 23.3149 68.9355 23.5791 68.2539 24.2872C67.6251 24.9424 67.2922 25.735 67.2922 26.6755C67.2922 27.1035 67.3768 27.5262 67.5406 27.9384C67.6991 28.3452 67.9263 28.7045 68.2222 29.0057C68.534 29.328 68.8827 29.5764 69.2684 29.7402C69.6541 29.904 70.0134 29.9885 70.489 29.9885C70.8324 29.9885 71.1653 29.9357 71.4824 29.8247C71.7941 29.7243 72.2221 29.476 72.3806 29.2065ZM68.7189 26.6914C68.7189 26.0679 68.8985 25.513 69.2684 25.122C69.5907 24.7839 70.0504 24.5672 70.6052 24.5672C71.1231 24.5672 71.5722 24.7257 71.9421 25.1062C72.3225 25.5025 72.4652 26.0626 72.4652 26.6227C72.4652 27.2197 72.3225 27.801 71.9526 28.1973C71.5828 28.5936 71.1283 28.7309 70.5947 28.7309C70.0557 28.7309 69.6171 28.5143 69.2843 28.1761C68.8985 27.7851 68.7189 27.2567 68.7189 26.6914ZM59.9899 32.2501V23.463H61.406V24.1076C61.6015 23.7906 61.9819 23.5687 62.2778 23.4683C62.579 23.3679 62.8907 23.3203 63.2025 23.3203C63.9845 23.3203 64.8194 23.5845 65.501 24.2925C66.1298 24.9478 66.4626 25.7403 66.4626 26.6809C66.4626 27.1141 66.3781 27.5369 66.2143 27.9437C66.0558 28.3506 65.8286 28.7152 65.5327 29.0111C65.2262 29.3334 64.8722 29.5817 64.4865 29.7455C64.1007 29.9093 63.7414 29.9939 63.2659 29.9939C62.9224 29.9939 62.5895 29.941 62.2725 29.8301C61.966 29.7297 61.5328 29.4813 61.3742 29.2118V32.2607H59.9899V32.2501ZM63.1602 24.5673C62.6424 24.5673 62.1933 24.7258 61.8234 25.1063C61.4429 25.5026 61.3003 26.0627 61.3003 26.6227C61.3003 27.2198 61.4429 27.8011 61.8128 28.1973C62.1827 28.5936 62.6424 28.731 63.1708 28.731C63.7097 28.731 64.1483 28.5144 64.4812 28.1762C64.8616 27.7852 65.0466 27.2568 65.0466 26.6914C65.0466 26.0679 64.8616 25.5184 64.4918 25.1221C64.1747 24.784 63.715 24.5673 63.1602 24.5673ZM76.1745 32.25L77.3739 29.4813L74.6316 23.4629H76.1217L78.0714 27.9806L79.8679 23.4629H81.3686L77.6434 32.25H76.1745Z" fill="#393939"/>
</svg>
