<svg width="93" height="56" viewBox="0 0 93 56" fill="none" xmlns="http://www.w3.org/2000/svg">
<rect x="0.894897" width="91.5789" height="55.2631" rx="8" fill="#F39100"/>
<path fill-rule="evenodd" clip-rule="evenodd" d="M23.3598 18.9474H16.1581C13.3967 18.9474 11.1581 21.186 11.1581 23.9474V31.1491C11.1581 33.9105 13.3967 36.1491 16.1581 36.1491H23.3598C26.1212 36.1491 28.3598 33.9105 28.3598 31.1491V23.9474C28.3598 21.186 26.1212 18.9474 23.3598 18.9474ZM16.8029 29.096C17.7983 29.096 17.9926 28.4162 17.9926 27.53H17.9804V22.8806L19.4129 22.5649V28.0641C19.4129 29.4116 18.3932 30.4799 16.7301 30.4799C15.4554 30.4799 14.1322 29.7515 14.1322 27.8578V22.8806L15.5647 22.5649V27.6514C15.5647 28.2948 15.6861 29.096 16.8029 29.096ZM21.4767 25.1265C21.9137 24.8108 22.4478 24.6409 23.0184 24.6409C24.5722 24.6409 25.8226 25.9398 25.8348 27.5544C25.8348 29.1568 24.5844 30.4678 23.0305 30.4678C22.4478 30.4678 21.9258 30.2858 21.4767 29.9823V31.9246L20.1049 32.2402V24.6409L21.4767 24.3131V25.1265ZM21.3431 27.5544C21.3431 28.4527 22.0108 29.2175 22.9334 29.2175C23.856 29.2175 24.5237 28.4527 24.5237 27.5544C24.5237 26.656 23.856 25.8912 22.9334 25.8912C22.0108 25.8912 21.3431 26.656 21.3431 27.5544ZM73.98 19.8214L73.9679 19.8335C73.7858 20.1128 73.6644 20.3555 73.6644 20.3555C73.6644 20.3555 67.7889 31.9609 66.6963 34.1096C66.15 35.1658 65.8708 35.6756 65.713 35.9063C65.713 35.9063 65.713 35.9184 65.7009 35.9306C65.6902 35.9465 65.6796 35.9602 65.67 35.9725C65.6576 35.9883 65.647 36.0019 65.6402 36.0155C65.6038 36.0762 65.5431 36.1369 65.5188 36.1248C65.5066 36.1126 65.4945 36.0884 65.4945 36.052V36.0398C65.4824 35.9913 65.4945 35.9427 65.4945 35.9427C65.6766 34.0489 69.974 24.5315 71.2001 21.8244C71.6493 20.8411 71.6614 20.2827 71.6614 20.2827C71.6371 19.9914 71.6978 19.0445 72.936 18.9838C74.3129 18.9269 74.1965 19.382 74.1665 19.4992L74.1665 19.4992L74.1664 19.4998C74.1644 19.5073 74.1629 19.5135 74.1621 19.5179C74.1621 19.5179 74.1621 19.5301 74.1379 19.5786C74.1136 19.6272 74.065 19.7122 73.98 19.8214ZM51.1213 22.9412C51.1941 22.1279 53.0393 19.8457 53.0393 19.8457C53.9862 19.8699 54.0712 20.137 53.8041 20.5255C53.7677 20.574 53.7192 20.6347 53.6706 20.6954C51.7526 23.1112 51.1213 22.9412 51.1213 22.9412ZM78.156 24.3131C78.6294 24.3131 79.0058 23.9246 79.0058 23.4633C79.0058 22.9777 78.6173 22.6135 78.156 22.6135C77.6947 22.6135 77.3062 22.9777 77.3062 23.4633C77.3062 23.9367 77.6947 24.3131 78.156 24.3131ZM78.156 22.7471C78.5445 22.7471 78.8722 23.0627 78.8722 23.4633C78.8722 23.8518 78.5566 24.1795 78.156 24.1795C77.7675 24.1795 77.4398 23.8639 77.4398 23.4633C77.4398 23.0506 77.7675 22.7471 78.156 22.7471ZM78.0224 23.5483H78.1924C78.2652 23.5483 78.2774 23.5725 78.2895 23.6332C78.2895 23.6373 78.2935 23.6668 78.2989 23.7061L78.2989 23.7065L78.299 23.7067C78.3098 23.7859 78.3259 23.9044 78.3259 23.9367H78.5323C78.5143 23.9008 78.503 23.8181 78.4934 23.7481C78.49 23.7236 78.4869 23.7007 78.4837 23.6818C78.4716 23.5604 78.4594 23.4754 78.3259 23.4633C78.3988 23.439 78.508 23.4026 78.508 23.2326C78.508 22.9777 78.2895 22.9777 78.1681 22.9777H77.8403V23.9367H78.0224V23.5483ZM78.0224 23.1355H78.1681C78.2167 23.1355 78.3138 23.1355 78.3138 23.2691C78.3138 23.3176 78.2895 23.4026 78.1681 23.4026H78.0224V23.1355ZM67.5339 27.3965C66.165 26.2016 63.5657 29.6183 62.3418 31.227L62.3417 31.2271L62.341 31.2281C62.2844 31.3025 62.2308 31.373 62.1804 31.4389C60.7236 32.9806 62.1561 29.5694 62.3867 29.0474C65.0089 24.0824 67.631 25.0293 67.631 25.0293C67.9466 24.2159 65.1667 24.3009 64.8268 24.3252C62.2046 25.3085 60.5658 30.0186 60.0681 31.5118C59.6311 33.187 61.367 32.8957 61.6826 32.6772C64.2573 28.9569 64.7063 28.7986 65.0082 28.6921L65.0331 28.6833C65.5894 28.7281 65.3235 30.2515 65.1664 31.1514C65.1109 31.4691 65.069 31.7091 65.0817 31.7788C66.3442 31.3782 67.5339 27.6028 67.5339 27.3965ZM74.5142 32.2523C75.1212 31.8517 78.411 30.14 78.9451 29.8851C79.6978 29.6423 79.7949 30.0793 79.5885 30.0915C79.0058 30.2371 74.4899 32.5922 74.4899 32.5922C74.4676 32.5866 74.4479 32.5836 74.4296 32.5808C74.408 32.5775 74.3882 32.5745 74.3685 32.5679C74.2471 32.5558 74.2228 32.5194 74.2471 32.4708C74.2471 32.4587 74.2593 32.4465 74.2714 32.4344C74.3442 32.3494 74.5142 32.2523 74.5142 32.2523ZM64.1106 23.5118C66.0286 22.4556 68.1045 21.448 68.1045 21.448C68.1045 21.448 66.4414 20.137 64.8268 21.448C63.2365 22.7348 60.8572 24.75 56.3534 32.0701C56.1713 32.3615 56.0135 32.4464 55.8921 32.4586C55.5644 32.4586 55.4308 31.8637 55.4187 31.7909C55.3802 31.531 55.418 31.2559 55.4837 30.7779L55.4837 30.7778L55.4838 30.7777L55.4838 30.7776L55.4838 30.7776C55.5009 30.6528 55.52 30.5142 55.5401 30.3584C55.6447 29.5296 55.86 28.6795 56.0618 27.8827C56.4688 26.2753 56.8208 24.8851 56.0985 24.3251C56.0985 24.3251 55.6979 23.9973 54.836 24.1309C54.836 24.1309 54.921 25.6119 54.921 26.3281C54.8724 28.1248 54.751 30.4798 54.7025 31.1961M64.1106 23.5118C61.9606 24.6922 59.1701 28.8371 57.8759 30.7594L64.1106 23.5118ZM57.3974 31.4631C57.2032 31.7545 57.0454 31.9851 56.9118 32.1672L57.3974 31.4631ZM56.9118 32.1672C56.9008 32.1819 56.8887 32.1977 56.8754 32.215L56.9118 32.1672ZM56.8754 32.215C56.8449 32.2548 56.8085 32.3022 56.7662 32.3615L56.8754 32.215ZM56.7662 32.3615C56.6812 32.4829 56.6084 32.58 56.5355 32.6528L56.7662 32.3615ZM56.5355 32.6528C55.8557 33.4662 55.2366 33.0656 55.0181 32.8592L56.5355 32.6528ZM55.0181 32.8592L54.9452 32.7864L55.0181 32.8592ZM54.9452 32.7864C54.9331 32.7742 54.9331 32.7621 54.9331 32.7621L54.9452 32.7864ZM54.9331 32.7621C54.6364 32.3938 54.676 31.6978 54.6958 31.3499L54.9331 32.7621ZM82.1863 30.7106C82.0891 30.4556 81.6643 30.492 81.6643 30.492C80.6203 30.492 78.0588 31.706 77.027 32.2159C77.027 32.2159 76.9663 32.2401 76.8934 32.2766C76.6992 32.3858 76.4078 32.5922 76.7235 32.75C76.8084 32.7864 76.9177 32.7986 77.0148 32.7986C77.1366 32.8079 77.2584 32.7956 77.3188 32.7895C77.3367 32.7877 77.3492 32.7864 77.3547 32.7864C77.4276 32.5436 79.9283 31.7788 81.1787 31.4268C81.4457 31.3418 81.64 31.269 81.7978 31.1961C81.9799 31.1233 82.2955 30.9655 82.1863 30.7106ZM48.0015 26.8502C48.1835 26.8137 48.8755 25.1628 49.1668 24.3494C49.786 23.3176 51.3277 25.4177 51.2184 25.6119C49.1426 27.6392 48.4142 31.1111 48.2564 32.0095C48.0986 33.0413 47.2731 32.9199 46.4597 32.665C45.6821 32.2428 46.9378 29.4112 47.2774 28.6452L47.2775 28.645C47.3089 28.5741 47.3325 28.5209 47.3459 28.489C47.6573 27.6508 47.3662 27.8874 47.1718 28.0455L47.1638 28.052C40.6394 33.6599 37.5894 34.8947 36.1095 35.4939L36.0804 35.5056C34.8544 35.9912 34.3566 35.4571 34.1503 34.9958C34.0046 34.668 34.1867 34.3281 34.2717 34.2067C37.2823 30.0186 44.6267 27.6999 45.44 27.5057C45.8042 27.4086 46.0106 27.2022 46.132 27.0322C46.2655 26.8137 46.2169 26.6923 46.1684 26.6438C45.003 25.357 41.8589 26.0732 40.8756 26.4738C39.2853 27.0929 38.9575 26.0489 39.4431 25.2963C40.0986 24.1066 45.8649 20.1249 46.6418 19.6514C47.7587 19.1416 48.4628 21.4481 48.4628 21.4481C44.9924 22.1552 43.0039 23.5447 42.0517 24.2101L42.0517 24.2102L42.0516 24.2103C41.9413 24.2873 41.8449 24.3547 41.7617 24.4101C40.8513 25.0171 41.0576 25.4298 41.2397 25.4177C45.2883 24.7629 46.237 25.609 46.8812 26.1836L46.8813 26.1837C46.9537 26.2482 47.0223 26.3094 47.091 26.3646C47.613 26.7652 47.7951 26.8744 48.0015 26.8502ZM37.088 34.2553C38.4355 33.6119 41.9802 31.8759 45.0151 28.4283C45.0637 28.3069 44.9544 28.2098 44.833 28.2583C44.833 28.2583 37.1366 31.6088 35.7891 34.4374C35.7648 34.4859 35.607 34.8987 35.9105 34.8258C35.9166 34.8258 35.9226 34.8228 35.9287 34.8198C35.9348 34.8167 35.9408 34.8137 35.9469 34.8137C35.953 34.8137 35.959 34.8106 35.9651 34.8076C35.9712 34.8046 35.9773 34.8015 35.9833 34.8015C35.9975 34.8015 36.0076 34.7974 36.0159 34.7939C36.0218 34.7915 36.0269 34.7894 36.0319 34.7894C36.2261 34.7044 36.5539 34.5466 37.088 34.2553ZM72.2683 28.7439C72.2683 28.7439 75.0604 27.9306 76.4443 26.8259C77.4398 26.0975 77.2819 25.1385 77.2819 25.1385C77.2698 24.7379 77.0634 24.3251 76.2865 24.2159C76.2711 24.2149 76.2522 24.2134 76.2301 24.2117C75.6951 24.1697 73.2565 23.9784 71.6128 27.3357C71.5742 27.4038 71.5303 27.4808 71.482 27.5654C70.8154 28.7331 69.3155 31.3605 69.6098 32.2887C69.7554 32.6771 70.0589 32.8349 70.0589 32.8349C71.4186 33.4541 73.9193 31.536 74.8298 30.7834C74.8298 30.7834 75.8738 30.0064 75.9466 29.9579C76.3351 29.6787 76.6143 29.4723 76.6264 29.4237C76.6507 29.2659 76.3715 29.0717 74.9633 30.0793L74.862 30.1499L74.8619 30.1499C74.072 30.7006 73.0428 31.4181 72.4261 31.7788L72.4119 31.786C72.2935 31.8458 71.897 32.0459 71.4671 32.0459C71.1272 32.0337 70.848 31.8274 71.2729 30.8926C71.7463 29.6665 72.1105 28.7439 72.2683 28.7439ZM75.5096 25.187C75.7281 25.0778 76.0801 24.9807 76.2986 25.272C76.4079 25.4663 76.3836 25.7576 76.2986 26.0247C76.2986 26.0368 76.0559 26.5831 75.2182 27.0929C74.2106 27.6756 72.7175 28.3676 72.4868 28.3433C73.0452 26.7045 74.8055 25.5755 75.5096 25.187Z" fill="white"/>
</svg>
