<svg width="92" height="56" viewBox="0 0 92 56" fill="none" xmlns="http://www.w3.org/2000/svg">
<rect x="0.315918" width="91.5789" height="55.2631" rx="8" fill="#283C93"/>
<path d="M71.7466 19.4513C72.1973 18.5199 72.6282 17.582 73.0922 16.6506C73.2116 17.6019 73.3441 18.5465 73.4767 19.4978C74.3915 19.1852 75.2798 18.8259 76.2079 18.5599C75.5582 19.3581 74.9285 20.1764 74.3053 20.9946C74.9881 21.5401 75.6709 22.059 76.3404 22.5978C75.4256 22.6976 74.5108 22.7442 73.596 22.8173C73.5629 23.7952 73.4966 24.7798 73.4436 25.7643C72.9133 25.0592 72.4293 24.3274 71.9255 23.609C71.1632 24.3075 70.3942 25.006 69.6584 25.7244C69.9435 24.7266 70.2285 23.7287 70.5069 22.7375C69.6253 22.6244 68.737 22.5047 67.8553 22.3849C68.7171 21.8993 69.5855 21.4004 70.4406 20.9015C70.0893 20.05 69.7247 19.2051 69.3866 18.3536C70.1622 18.7262 70.9643 19.0588 71.7466 19.4513Z" fill="white"/>
<path d="M71.7466 19.4513C72.1973 18.5199 72.6282 17.582 73.0922 16.6506C73.2116 17.6019 73.3441 18.5465 73.4767 19.4978C74.3915 19.1852 75.2798 18.8259 76.2079 18.5599C75.5582 19.3581 74.9285 20.1764 74.3053 20.9946C74.9881 21.5401 75.6709 22.059 76.3404 22.5978C75.4256 22.6976 74.5108 22.7442 73.596 22.8173C73.5629 23.7952 73.4966 24.7798 73.4436 25.7643C72.9133 25.0592 72.4293 24.3274 71.9255 23.609C71.1632 24.3075 70.3942 25.006 69.6584 25.7244C69.9435 24.7266 70.2285 23.7287 70.5069 22.7375C69.6253 22.6244 68.737 22.5047 67.8553 22.3849C68.7171 21.8993 69.5855 21.4004 70.4406 20.9015C70.0893 20.05 69.7247 19.2051 69.3866 18.3536C70.1622 18.7262 70.9643 19.0588 71.7466 19.4513Z" stroke="white" stroke-width="0.094" stroke-miterlimit="10"/>
<path d="M45.867 24.9728C46.636 24.9063 47.405 24.8597 48.1673 24.8065C47.6171 27.7535 47.0669 30.6872 46.5034 33.6209C46.2383 34.9513 45.6218 36.3018 44.5081 37.12C43.3281 38.0181 41.777 38.2376 40.3385 38.1711C39.0591 38.1045 37.72 37.6721 36.8914 36.6344C36.0429 35.5367 36.0031 34.02 36.3942 32.7361C36.8118 31.1662 38.0117 29.8556 39.4966 29.237C41.2665 28.432 43.2618 28.5584 45.1577 28.6183C45.3964 27.3943 45.635 26.1769 45.867 24.9728Z" fill="white"/>
<path d="M45.867 24.9728C46.636 24.9063 47.405 24.8597 48.1673 24.8065C47.6171 27.7535 47.0669 30.6872 46.5034 33.6209C46.2383 34.9513 45.6218 36.3018 44.5081 37.12C43.3281 38.0181 41.777 38.2376 40.3385 38.1711C39.0591 38.1045 37.72 37.6721 36.8914 36.6344C36.0429 35.5367 36.0031 34.02 36.3942 32.7361C36.8118 31.1662 38.0117 29.8556 39.4966 29.237C41.2665 28.432 43.2618 28.5584 45.1577 28.6183C45.3964 27.3943 45.635 26.1769 45.867 24.9728Z" stroke="white" stroke-width="0.094" stroke-miterlimit="10"/>
<path d="M63.2615 32.2704C65.5816 30.2747 67.6764 28.0195 69.6452 25.6846C68.7503 28.7713 67.0268 31.6185 64.6933 33.8071C64.1431 34.2528 63.6393 34.7717 63.0228 35.1442C61.0076 36.5146 58.6278 37.3993 56.1884 37.4259L56.2414 37.3794C58.1704 36.2485 60.0199 34.9978 61.7434 33.5809C62.2473 33.1551 62.7842 32.7427 63.2615 32.2704Z" fill="#EA2228"/>
<path d="M63.2615 32.2704C65.5816 30.2747 67.6764 28.0195 69.6452 25.6846C68.7503 28.7713 67.0268 31.6185 64.6933 33.8071C64.1431 34.2528 63.6393 34.7717 63.0228 35.1442C61.0076 36.5146 58.6278 37.3993 56.1884 37.4259L56.2414 37.3794C58.1704 36.2485 60.0199 34.9978 61.7434 33.5809C62.2473 33.1551 62.7842 32.7427 63.2615 32.2704Z" stroke="#EA2228" stroke-width="0.094" stroke-miterlimit="10"/>
<path d="M29.7254 28.7248C31.0114 28.5918 32.4102 28.6916 33.557 29.3635C34.4055 29.8491 35.022 30.7338 35.1546 31.7184C35.3335 33.0355 34.9225 34.4126 34.1867 35.4969C33.0731 37.1267 31.1573 38.078 29.2349 38.2443C27.9687 38.3441 26.6164 38.2443 25.4895 37.5724C24.6211 37.0669 24.0046 36.1355 23.9052 35.1177C23.7593 33.6808 24.2565 32.204 25.158 31.0864C26.285 29.7094 27.9886 28.9044 29.7254 28.7248Z" fill="white"/>
<path d="M29.7254 28.7248C31.0114 28.5918 32.4102 28.6916 33.557 29.3635C34.4055 29.8491 35.022 30.7338 35.1546 31.7184C35.3335 33.0355 34.9225 34.4126 34.1867 35.4969C33.0731 37.1267 31.1573 38.078 29.2349 38.2443C27.9687 38.3441 26.6164 38.2443 25.4895 37.5724C24.6211 37.0669 24.0046 36.1355 23.9052 35.1177C23.7593 33.6808 24.2565 32.204 25.158 31.0864C26.285 29.7094 27.9886 28.9044 29.7254 28.7248Z" stroke="white" stroke-width="0.094" stroke-miterlimit="10"/>
<path d="M49.3207 30.4609C50.6664 29.1571 52.5888 28.6116 54.425 28.6581C55.3929 28.6781 56.4535 28.8377 57.2092 29.4897C57.9715 30.1549 58.071 31.339 57.6467 32.2171C57.2622 32.9821 56.4999 33.4811 55.731 33.7871C53.8947 34.4856 51.8663 34.4057 49.9637 34.0665C49.851 35.1308 50.3151 36.2684 51.2763 36.8006C52.7811 37.6122 54.5775 37.5656 56.2281 37.386L56.1751 37.4326C54.7432 38.4171 52.9136 38.7032 51.2232 38.4171C50.1096 38.2375 48.9893 37.7319 48.2932 36.8139C47.7231 36.1154 47.4911 35.1841 47.564 34.2927C47.637 32.8424 48.2667 31.4388 49.3207 30.4609Z" fill="white"/>
<path d="M49.3207 30.4609C50.6664 29.1571 52.5888 28.6116 54.425 28.6581C55.3929 28.6781 56.4535 28.8377 57.2092 29.4897C57.9716 30.1549 58.071 31.339 57.6467 32.2171C57.2622 32.9821 56.4999 33.4811 55.731 33.7871C53.8947 34.4856 51.8663 34.4057 49.9637 34.0665C49.851 35.1309 50.3151 36.2684 51.2763 36.8006C52.7811 37.6122 54.5775 37.5656 56.2281 37.386L56.1751 37.4326C54.7432 38.4171 52.9136 38.7032 51.2232 38.4171C50.1096 38.2375 48.9893 37.7319 48.2932 36.8139C47.7231 36.1154 47.4911 35.1841 47.564 34.2927C47.637 32.8424 48.2667 31.4388 49.3207 30.4609Z" stroke="white" stroke-width="0.094" stroke-miterlimit="10"/>
<path d="M74.0933 28.7248C75.4124 28.5385 76.8244 28.5718 78.0574 29.1572C79.0385 29.6029 79.8075 30.5276 79.9864 31.6053C80.2185 32.9224 79.834 34.3061 79.1181 35.4237C78.0972 37.0269 76.2808 38.0381 74.4181 38.3042C73.1056 38.4838 71.7201 38.4173 70.5136 37.8385C69.5657 37.3928 68.8299 36.528 68.631 35.5102C68.3791 34.2596 68.6973 32.9557 69.3138 31.8581C70.3081 30.1351 72.1576 29.0109 74.0933 28.7248Z" fill="white"/>
<path d="M74.0933 28.7248C75.4124 28.5385 76.8244 28.5718 78.0574 29.1572C79.0385 29.6029 79.8075 30.5276 79.9864 31.6053C80.2185 32.9224 79.834 34.3061 79.1181 35.4237C78.0972 37.0269 76.2808 38.0381 74.4181 38.3042C73.1056 38.4838 71.7201 38.4173 70.5136 37.8385C69.5657 37.3928 68.8299 36.528 68.631 35.5102C68.3791 34.2596 68.6973 32.9557 69.3138 31.8581C70.3081 30.1351 72.1576 29.0109 74.0933 28.7248Z" stroke="white" stroke-width="0.094" stroke-miterlimit="10"/>
<path d="M17.5214 29.1438C18.5357 28.8711 19.5897 28.758 20.6371 28.7713C21.7905 28.758 22.9572 28.8378 24.0908 29.0374C23.925 29.4831 23.7593 29.9155 23.6201 30.3546C21.9827 30.2348 20.2857 30.1217 18.655 30.5009C18.1578 30.634 17.5214 30.8335 17.3889 31.4189C17.369 31.8646 17.7733 32.1174 18.1512 32.2239C19.3179 32.5432 20.5708 32.5033 21.6712 33.0222C22.1882 33.255 22.6258 33.7073 22.7186 34.2861C22.8644 35.1842 22.6059 36.1687 21.9827 36.8406C21.2668 37.6123 20.2128 37.9582 19.2118 38.1444C17.1303 38.4771 14.9825 38.2974 12.9607 37.7786C13.0734 37.3129 13.206 36.8472 13.312 36.3816C15.0621 36.6011 16.8585 36.8805 18.6086 36.5146C19.2715 36.3683 20.0206 36.0157 20.1399 35.2773C20.2725 34.7917 19.8416 34.4058 19.424 34.2794C18.3103 33.9335 17.1237 34.0133 16.0365 33.6076C15.5659 33.4279 15.1019 33.1086 14.9229 32.623C14.5914 31.7715 14.903 30.767 15.5593 30.1683C16.1227 29.6694 16.8055 29.3434 17.5214 29.1438Z" fill="white"/>
<path d="M17.5214 29.1438C18.5357 28.8711 19.5897 28.758 20.6371 28.7713C21.7905 28.758 22.9572 28.8378 24.0908 29.0374C23.925 29.4831 23.7593 29.9155 23.6201 30.3546C21.9827 30.2348 20.2857 30.1217 18.655 30.5009C18.1578 30.634 17.5214 30.8335 17.3889 31.4189C17.369 31.8646 17.7733 32.1174 18.1512 32.2239C19.3179 32.5432 20.5708 32.5033 21.6712 33.0222C22.1882 33.255 22.6258 33.7073 22.7186 34.2861C22.8644 35.1842 22.6059 36.1687 21.9827 36.8406C21.2668 37.6123 20.2128 37.9582 19.2118 38.1444C17.1303 38.4771 14.9825 38.2974 12.9607 37.7786C13.0734 37.3129 13.206 36.8472 13.312 36.3816C15.0621 36.6011 16.8585 36.8805 18.6086 36.5146C19.2715 36.3683 20.0206 36.0157 20.1399 35.2773C20.2725 34.7917 19.8416 34.4058 19.424 34.2794C18.3103 33.9335 17.1237 34.0133 16.0365 33.6076C15.5659 33.4279 15.1019 33.1086 14.9229 32.623C14.5914 31.7715 14.903 30.767 15.5593 30.1683C16.1227 29.6694 16.8055 29.3434 17.5214 29.1438Z" stroke="white" stroke-width="0.094" stroke-miterlimit="10"/>
<path d="M58.3362 28.7712C59.0521 28.7712 59.7813 28.7845 60.4906 28.7712C61.3723 29.9687 62.3202 31.1195 63.3079 32.2171L63.2615 32.2704C62.7909 32.7427 62.2473 33.1551 61.7435 33.5875C60.5105 32.0575 59.3769 30.441 58.3362 28.7712Z" fill="white"/>
<path d="M58.3362 28.7712C59.0521 28.7712 59.7813 28.7845 60.4906 28.7712C61.3723 29.9687 62.3202 31.1195 63.3079 32.2171L63.2615 32.2704C62.7909 32.7427 62.2473 33.1551 61.7435 33.5875C60.5105 32.0575 59.3769 30.441 58.3362 28.7712Z" stroke="white" stroke-width="0.094" stroke-miterlimit="10"/>
<path d="M40.6235 30.6938C41.9028 30.0286 43.3877 30.0419 44.7865 30.1949C44.5346 31.3657 44.3158 32.5432 44.0705 33.7007C43.9379 34.4391 43.6662 35.2041 43.0894 35.7163C42.3868 36.3683 41.3593 36.5146 40.4445 36.4015C39.8081 36.3483 39.1253 36.0356 38.827 35.4303C38.4624 34.7318 38.5884 33.9002 38.774 33.1685C39.0325 32.144 39.6689 31.1861 40.6235 30.6938Z" fill="#283C93"/>
<path d="M40.6235 30.6938C41.9028 30.0286 43.3877 30.0419 44.7865 30.1949C44.5346 31.3657 44.3158 32.5432 44.0705 33.7007C43.9379 34.4391 43.6662 35.2041 43.0894 35.7163C42.3868 36.3683 41.3593 36.5146 40.4445 36.4015C39.8081 36.3483 39.1253 36.0356 38.827 35.4303C38.4624 34.7318 38.5884 33.9002 38.774 33.1685C39.0325 32.144 39.6689 31.1861 40.6235 30.6938Z" stroke="#283C93" stroke-width="0.094" stroke-miterlimit="10"/>
<path d="M52.3037 30.4875C53.0859 30.1349 54.0007 29.9886 54.8492 30.2081C55.247 30.3079 55.6116 30.6405 55.6315 31.0862C55.7309 31.7847 55.1277 32.3235 54.531 32.5364C53.1655 32.9888 51.6938 32.8823 50.3018 32.6495C50.6995 31.7248 51.3955 30.9066 52.3037 30.4875Z" fill="#283C93"/>
<path d="M52.3037 30.4875C53.0859 30.1349 54.0007 29.9886 54.8492 30.2081C55.247 30.3079 55.6116 30.6405 55.6315 31.0862C55.7309 31.7847 55.1277 32.3235 54.531 32.5364C53.1655 32.9888 51.6938 32.8823 50.3018 32.6495C50.6995 31.7248 51.3955 30.9066 52.3037 30.4875Z" stroke="#283C93" stroke-width="0.094" stroke-miterlimit="10"/>
<path d="M29.5001 30.3745C30.3353 30.1749 31.3031 30.2548 31.9859 30.8202C32.5494 31.3191 32.735 32.1241 32.6488 32.8425C32.5494 33.6608 32.2511 34.479 31.734 35.1309C31.0181 36.0623 29.8381 36.6277 28.6714 36.5811C28.035 36.5811 27.3523 36.4281 26.9015 35.9492C26.5833 35.6166 26.4308 35.1642 26.4043 34.7118C26.3248 32.8093 27.5843 30.8202 29.5001 30.3745Z" fill="#283C93"/>
<path d="M29.5001 30.3745C30.3353 30.1749 31.3031 30.2548 31.9859 30.8202C32.5494 31.3191 32.735 32.1241 32.6488 32.8425C32.5494 33.6608 32.2511 34.479 31.734 35.1309C31.0181 36.0623 29.8381 36.6277 28.6714 36.5811C28.035 36.5811 27.3523 36.4281 26.9015 35.9492C26.5833 35.6166 26.4308 35.1642 26.4043 34.7118C26.3248 32.8093 27.5843 30.8202 29.5001 30.3745Z" stroke="#283C93" stroke-width="0.094" stroke-miterlimit="10"/>
<path d="M74.2921 30.3545C75.0876 30.1749 75.9958 30.2215 76.6719 30.7204C77.2022 31.1063 77.4674 31.7582 77.474 32.4035C77.4939 34.0532 76.5393 35.7496 74.9882 36.3749C74.1198 36.7275 73.1055 36.7874 72.2239 36.4281C71.6206 36.1953 71.1897 35.5899 71.1367 34.9314C70.9577 32.9357 72.2769 30.7936 74.2921 30.3545Z" fill="#283C93"/>
<path d="M74.2921 30.3545C75.0876 30.1749 75.9958 30.2215 76.6719 30.7204C77.2022 31.1063 77.4674 31.7582 77.474 32.4035C77.4939 34.0532 76.5393 35.7496 74.9882 36.3749C74.1198 36.7275 73.1055 36.7874 72.2239 36.4281C71.6206 36.1953 71.1897 35.5899 71.1367 34.9314C70.9577 32.9357 72.2769 30.7936 74.2921 30.3545Z" stroke="#283C93" stroke-width="0.094" stroke-miterlimit="10"/>
<path d="M63.0161 35.1442C63.6326 34.7651 64.1364 34.2462 64.6866 33.8071C66.0389 35.3039 67.4178 36.7741 68.79 38.2442C67.8288 38.2243 66.8609 38.2575 65.9064 38.2309C65.6545 38.0779 65.4887 37.8451 65.2766 37.6455C64.4944 36.8406 63.7254 36.0224 63.0161 35.1442Z" fill="white"/>
<path d="M63.0161 35.1442C63.6326 34.7651 64.1364 34.2462 64.6866 33.8071C66.0389 35.3039 67.4178 36.7741 68.79 38.2442C67.8288 38.2243 66.8609 38.2575 65.9064 38.2309C65.6545 38.0779 65.4887 37.8451 65.2766 37.6455C64.4944 36.8406 63.7254 36.0224 63.0161 35.1442Z" stroke="white" stroke-width="0.094" stroke-miterlimit="10"/>
</svg>
