<svg width="92" height="56" viewBox="0 0 92 56" fill="none" xmlns="http://www.w3.org/2000/svg">
<rect width="91.5789" height="55.2631" rx="8" fill="#1B36D1"/>
<path fill-rule="evenodd" clip-rule="evenodd" d="M56.3737 18.3176C56.1955 18.2862 56.0173 18.2549 55.8397 18.2218H53.6287C53.5388 18.2487 53.4473 18.2703 53.3549 18.2867C51.698 18.489 50.1393 18.9704 48.8273 20.0522C47.3181 21.3006 46.5851 22.8973 46.8007 24.8705C46.9419 26.1903 47.6857 27.178 48.7141 27.9212C49.2554 28.311 49.8418 28.6403 50.4287 28.9698L50.4288 28.9698L50.4288 28.9699C50.7115 29.1286 50.9943 29.2874 51.2722 29.453C51.3861 29.5225 51.5012 29.5908 51.6166 29.6593C52.0506 29.9169 52.4869 30.1759 52.8634 30.5023C53.5878 31.1319 53.5112 32.138 52.7157 32.6735C52.3404 32.9273 51.9187 33.1038 51.4749 33.1928C49.8126 33.5054 48.2075 33.2176 46.6541 32.5902C46.4527 32.5065 46.2541 32.4175 46.0516 32.3266C45.9268 32.2707 45.8004 32.214 45.6709 32.1575C45.5188 32.8744 45.3687 33.5804 45.2197 34.281L45.2104 34.3249L45.2063 34.3444L44.8204 36.1601C44.8619 36.1909 44.9059 36.218 44.9519 36.2413L44.9912 36.2576C45.1084 36.3063 45.2251 36.3549 45.3454 36.3938C47.312 37.0481 49.3928 37.285 51.4555 37.0894C52.9464 36.9498 54.3769 36.5745 55.6414 35.7328C57.6507 34.3946 58.5358 32.5026 58.2383 30.101C58.069 28.739 57.2659 27.7384 56.1642 27.0081C55.5961 26.6301 55.0016 26.2972 54.4071 25.9645C54.0201 25.7478 53.6332 25.5312 53.2536 25.3022C52.8231 25.0568 52.4195 24.7668 52.0495 24.4367C51.5309 23.9521 51.5417 23.2803 52.0807 22.814C52.4095 22.5364 52.793 22.3318 53.2062 22.2136C54.1947 21.9378 55.2069 22.0232 56.1954 22.2396C56.6865 22.3491 57.1706 22.5006 57.6627 22.6547C57.8901 22.7259 58.1191 22.7976 58.3514 22.8659C58.6188 21.6082 58.8933 20.3201 59.175 19.0018C58.9996 18.9517 58.8284 18.9006 58.6599 18.8502L58.6599 18.8502C58.293 18.7406 57.9386 18.6348 57.5796 18.5517C57.181 18.4594 56.7772 18.3885 56.3737 18.3176ZM70.6007 36.8611H74.999L75.0001 36.7313C74.9555 36.5377 74.91 36.3445 74.8644 36.1512L74.864 36.1494C74.764 35.7255 74.6641 35.3017 74.5753 34.8749C73.5692 30.0249 72.5602 25.1752 71.5483 20.3258C71.458 19.8927 71.3648 19.459 71.2709 19.0217L71.2709 19.0217L71.2708 19.0215L71.1688 18.5463H67.3085C66.1669 18.5463 65.4975 18.9931 65.0534 20.0608C63.003 24.9649 60.9516 29.8709 58.8991 34.7786C58.6166 35.4666 58.3342 36.1525 58.0367 36.873L58.8107 36.8731C60.1756 36.8736 61.5129 36.874 62.851 36.8622C62.9351 36.8622 63.0569 36.728 63.0936 36.6296C63.3663 35.9113 63.6315 35.1886 63.874 34.4595C63.956 34.215 64.0616 34.1285 64.3289 34.1285C66.0926 34.1458 67.8562 34.1512 69.6198 34.1285C69.9733 34.1198 70.0747 34.2431 70.1307 34.5612C70.2274 35.1009 70.3417 35.638 70.4571 36.18L70.4571 36.1801L70.4571 36.1801L70.4573 36.1809L70.4574 36.1815C70.5054 36.407 70.5536 36.6334 70.6007 36.8611ZM67.8486 23.647L69.2425 30.3541L65.366 30.3519L67.7926 23.6361L67.8486 23.647ZM38.7372 18.5625L38.5844 18.9326L38.5843 18.9328C38.3926 19.3969 38.207 19.8465 38.0193 20.2933C35.7569 25.7139 33.4971 31.134 31.2398 36.5538C31.132 36.8124 31.0015 36.8783 30.7406 36.8783C29.3112 36.8664 27.8829 36.8621 26.4545 36.8783C26.1516 36.8783 26.0524 36.7767 25.9834 36.504C25.5236 34.7076 25.0604 32.9115 24.5971 31.1151L24.5969 31.1143L24.5969 31.1141C23.8394 28.1771 23.0818 25.2395 22.3387 22.299C22.1231 21.4336 21.6801 20.8353 20.8554 20.4708C19.533 19.9042 18.1618 19.4599 16.759 19.1434L16.579 19.098C16.5823 18.8169 16.5839 18.6791 16.6536 18.6114C16.7208 18.5463 16.8512 18.5463 17.1072 18.5463H24.6068C25.7926 18.5463 26.6486 19.2375 26.8706 20.4156C27.2388 22.3434 27.6015 24.2727 27.9641 26.201L27.9641 26.201C28.2289 27.6097 28.4937 29.0178 28.7604 30.4244C28.7798 30.5296 28.8015 30.6344 28.8278 30.7616L28.8606 30.9209C28.8833 30.878 28.9034 30.8417 28.9212 30.8095C28.9541 30.75 28.9794 30.7043 28.9997 30.6559C30.5506 26.7138 32.0996 22.7714 33.6469 18.8286C33.731 18.6122 33.8345 18.5398 34.0663 18.5419C34.8848 18.5486 35.703 18.5478 36.521 18.5469C37.1531 18.5462 37.7851 18.5456 38.4171 18.5484C38.4755 18.5471 38.5339 18.5508 38.6017 18.555C38.6428 18.5576 38.6872 18.5604 38.7372 18.5625ZM40.7476 18.568C39.4476 24.665 38.1507 30.7468 36.8453 36.8719H37.2334C37.5899 36.8719 37.9468 36.8708 38.3037 36.8697C39.2471 36.8666 40.1907 36.8636 41.1292 36.8817C41.4914 36.8892 41.6143 36.7778 41.6887 36.4273C42.7574 31.3905 43.8278 26.354 44.9001 21.3179C45.0221 20.7452 45.1437 20.1724 45.2662 19.5954C45.3385 19.2547 45.4111 18.9125 45.4844 18.568H40.7476Z" fill="white"/>
</svg>
